<svg xmlns="http://www.w3.org/2000/svg" width="1200" height="800" viewBox="-68.955 -36.275 597.61 217.65"><path fill="#231f20" d="M0 0h459.7v145.1H0z"/><path d="M0 0h459.7v145.1H0z"/><path fill="#fff" d="M93.6 46.9v51.5h-4.7V56.3l-17 32.9h-3.3l-17-32.8v42h-4.7V46.9h4.9l18.5 35.5 18.4-35.5m55 52.2l-8.6-9.1c-3.1 4.9-7.3 8.4-14.2 8.4-8.9 0-15.5-6.2-15.5-13.8 0-6.3 3.9-10.2 11.4-14.5-4.3-4.3-6.6-7.8-6.6-12 0-6.1 5.2-11 11.4-11 6.6 0 11.6 4.9 11.6 11 0 5.9-4.6 9.9-9.3 12.9l10.6 11.6 6.3-10.2 3.8 2.4-7 11.2 9.5 10.1m-27.3-22.8c-6.7 3.7-9.7 6.6-9.7 11.2 0 5.2 4.7 9.6 10.8 9.6 5.5 0 8.3-2.5 11.3-7.4zm-5-15.3c0 2.9 1.9 5.3 6.1 9.8 4.9-2.9 7.7-5.9 7.7-9.8 0-3.8-2.6-6.9-7-6.9-4.1.1-6.8 3.3-6.8 6.9m72.2-.1l-4.3 1.5c-1.7-5.4-6.5-8.8-13-8.8-7.1 0-11.7 3.5-11.7 9.5 0 12.8 29.4 6 29.4 24.1 0 8.6-6.9 14.7-17.3 14.7-9.6 0-15.3-4.6-19.3-11.9l4-2.4c2.7 5.6 7.5 10 14.9 10 8.6 0 13-3.9 13-10.4 0-12.9-29.4-6.6-29.4-24.1 0-10.4 9.4-13.8 16.3-13.8 7.8-.1 14.9 3.5 17.4 11.6m48.2 40.5h-19.9V46.9h18.9c10.2 0 16.9 5.1 16.9 12.9 0 6.7-3.9 10.2-7.7 12 6.4 2.2 9.8 6.4 9.8 12.2-.1 8.7-7.1 14.4-18 14.4M220 93.9h15.4c8 0 12.9-3.8 12.9-9.9 0-6-5-9.3-14.1-9.3H220zm0-23.7h13.7c7.7 0 12.5-3.8 12.5-10 0-5.5-4.6-8.8-12.2-8.8h-14zm89.3 28.2h-5.1l-6-14.3h-26.8l-6 14.3h-5.1l21.4-51.5h6m-14.4 32.6h23.1l-11.6-27.8zm87.2 18.9H357l-33.4-43.2v43.2h-4.8V46.9h4.3l32.7 42.2V46.9h4.7m54.7 51.5h-6.1l-.2-.2-20.7-25-6.8 7.2v18h-4.7V46.9h4.7v27l25.6-27h6.2l-21.6 22.7"/><path fill="none" d="M0 145.1V0h459.7v145.1"/></svg>