<?xml version="1.0" encoding="utf-8"?>
<!-- Generator: Adobe Illustrator 24.2.0, SVG Export Plug-In . SVG Version: 6.00 Build 0)  -->
<svg version="1.1" id="Layer_1" xmlns="http://www.w3.org/2000/svg" xmlns:xlink="http://www.w3.org/1999/xlink" x="0px" y="0px"
	 viewBox="0 0 283.5 141.7" style="enable-background:new 0 0 283.5 141.7;" xml:space="preserve">
<style type="text/css">
	.st0{fill:#0E70B8;}
	.st1{fill:#F7901E;}
	.st2{fill:#F79121;}
	.st3{fill:#FFEE56;}
</style>
<g>
	<path class="st0" d="M-75.7,93.1c-1.2-0.8-2.5-1.6-3.8-2.2c0,0,4.2-4.7,5.3-6.9c1.2-2.5,1.8-5.3,1.7-8.1c0-0.6,0-1.2-0.1-1.8
		c-0.2-3.7-1.5-7.2-3.9-10c-3.9-4.5-9.7-8.2-19-8.2c-2.1-0.1-3.9-0.1-5.5,0h-2.3h-26c-2.2-0.1-4.1,1.6-4.2,3.8v3
		c0.1,2.2,2.1,3.9,4.3,3.8h2.7c0.6,0,1,0.4,1,1v60.4c0.1,2.2,1.9,3.9,4.2,3.8c0,0,0,0,0,0h19.4c3,0,6.3-0.2,9.8-0.5
		c3.7-0.3,7.3-1.2,10.7-2.7c3.5-1.5,6.5-4.6,8.9-7.5c2.5-3.1,3.8-7.2,3.8-12.2l0,0l0,0c0.1-3.2-0.6-6.5-1.9-9.4
		C-71.8,97.1-73.5,94.9-75.7,93.1 M-106.6,67.7c1-0.1,2-0.2,3-0.2c1.8,0,3.6,0.2,5.4,0.5c1.3,0.2,2.6,0.7,3.7,1.4
		c0.9,0.6,1.7,1.5,2.2,2.4c0.1,0.1,0.1,0.3,0.2,0.4c0.5,1.3,0.7,2.8,0.7,4.2c0,2.4-0.4,4.2-1.3,5.3c-0.9,1.1-2,2-3.3,2.6
		c-1.5,0.6-3.1,1-4.8,1.1c-2.1,0.1-4.2,0-5.7,0L-106.6,67.7z M-88.8,114c-0.7,1.2-1.7,2.3-2.9,3c-1.4,0.8-2.9,1.4-4.5,1.8
		c-1.9,0.4-3.8,0.6-5.8,0.6c-1.5,0-3.1,0-4.6-0.2c-0.1,0,0.1,0,0,0c0-0.3,0-21.7,0-21.7c2.2,0,4.9,0.1,7.5,0.3c2,0.2,4,0.7,5.9,1.5
		c1.6,0.7,3,1.9,4,3.3c1,1.4,1.5,3.6,1.5,6.4C-87.6,110.8-88,112.5-88.8,114"/>
	<path class="st0" d="M-224.6,55.9h-18.2c-0.7,0-1.4,0.2-2.1,0.5l-0.1,0.1l-0.2,0.1c-1.1,0.7-1.9,1.9-1.9,3.2v3.2
		c0.1,2.2,1.9,3.9,4.1,3.8c0,0,0.1,0,0.1,0h2.8c0.5,0,1,0.4,1.1,0.9c0,0.7-0.1,1.7-0.1,2.6V128c0,0.3,0,0.6,0.1,0.8
		c0.5,1.9,2.2,3.1,4.1,3.1h1.6l0,0h8.6c2.3,0.1,4.2-1.6,4.3-3.9V59.7C-220.4,57.5-222.3,55.7-224.6,55.9"/>
	<path class="st0" d="M-137.7,55.9h-0.5h-6.3h-7.7c-1.7,0-3.3,1-4,2.6c-0.8,2-2.2,5.3-4,9.9l-3,7.2l-3.9,9.8
		c-1.5,3.8-3.2,8-5.2,12.8c-0.7,1.6-1.3,3.3-2,5l-2-5c-2-4.8-3.7-9-5.2-12.8c-1.5-3.7-2.8-7-3.9-9.8l-2.9-7.2
		c-1.9-4.5-3.3-7.9-4-9.9c-0.7-1.6-2.3-2.6-4-2.6h-16.7c-2.2-0.1-4.1,1.6-4.2,3.8v3.2c0.1,2.2,1.9,3.9,4.1,3.8h2.6
		c2.2,0,2.7,1.9,4.2,5.5l23.5,57.2c0.7,1.6,2.3,2.6,4,2.5h9.2c1,0,2-0.3,2.8-0.9c0.6-0.4,1-1,1.3-1.6l20.8-50.6l2.7-6.6
		c0.3-0.7,0.6-1.3,0.9-2l4.6-11l0.4-0.9c0.5-0.7,0.2-1.7-0.5-2.2C-137.1,55.9-137.4,55.8-137.7,55.9"/>
	<path class="st0" d="M-42.1,52.3c4.3-2.1,5.9-4,6.4-5.7c0.2-0.6,0.2-1.1,0.1-1.7c-0.1-0.4-0.3-0.8-0.6-1.1
		c-0.4-0.5-1.1-1.2-3.2-0.8c-1,0.2-1.9,0.4-2.8,0.8l-0.5,0.2l0.5-0.2l-1.2,0.6c-0.8,0.4-1.6,0.8-2.4,1.2l0.7-0.4l-0.8,0.4
		c-2.6,1.3-5.1,2.9-7.5,4.7c-2.2,1.7-4.1,3.6-5.9,5.7c-1.3,1.6-2.4,3.4-3.1,5.4l-0.1,0.3c-0.3,1.1-0.6,2.2-0.7,3.4
		c-0.1,2,0.2,4,0.9,5.9c0.1,0.2,0.1,0.5,0.2,0.7C-61.9,70.8-61.4,61.7-42.1,52.3"/>
	<path class="st0" d="M-48.2,68.6c-0.6-0.5-1.4-0.6-2.1-0.3c-2,0.8-3.8,2-5.4,3.5h-0.1c-1.2,1.1-2.2,2.5-3,4
		c-0.9,1.8-0.8,3.9,0.1,5.6c0.1,0.1,0.1,0.2,0.2,0.3c0.2,0.4,0.5,0.7,0.8,1c0-0.2,0-0.4,0-0.6c0-0.5,0.1-1,0.2-1.5
		c0.3-1,0.7-1.9,1.3-2.7c0.5-0.6,1-1.2,1.6-1.7c0.6-0.5,1.2-1,1.9-1.4c1.1-0.7,2.2-1.4,3.2-2.2c0.6-0.5,1.2-1.1,1.5-1.8
		c0.3-0.6,0.4-1.4,0.1-2C-48,68.9-48.1,68.7-48.2,68.6"/>
	<path class="st1" d="M-28.3,28.4c-0.3-0.5-0.8-1.3-3.3-1.2c-2.3,0.2-4.6,0.8-6.8,1.8l-0.7,0.3l0.8-0.3c-1.7,0.7-3.7,1.6-5.8,2.8
		l1.2-0.6l-1.3,0.7c-3.1,1.7-6.1,3.6-9,5.6c-2.9,2-5.5,4.5-7.6,7.3c-1.6,2.1-2.9,4.4-3.9,6.9c-0.8,2.3-1.2,4.8-0.9,7.3
		c0.2,1.5,0.5,3,1,4.5c0.1,0.4,0.2,0.7,0.3,1c0.1-1.2,0.3-2.3,0.7-3.4c0.1-0.3,0.2-0.6,0.4-0.8s0.3-0.6,0.4-0.9s0.3-0.6,0.4-0.9
		s0.3-0.6,0.5-1s0.4-0.7,0.6-1s0.5-0.7,0.7-1s0.5-0.7,0.8-1.1s0.6-0.8,0.9-1.2s0.7-0.8,1.1-1.2s0.8-0.8,1.2-1.2s0.9-0.8,1.3-1.2
		s1-0.8,1.5-1.3s1.1-0.9,1.6-1.3s1.2-0.9,1.8-1.3s1.4-0.9,2-1.3s1.5-0.9,2.2-1.3s1.6-0.9,2.4-1.3s1.7-0.9,2.5-1.3l2.7-1.3
		c2.6-1.1,5.1-2.5,7.4-4.2c0.9-0.6,1.6-1.4,2.3-2.3c0.3-0.4,0.5-0.7,0.7-1.2C-27.6,30.4-27.7,29.3-28.3,28.4"/>
	<path class="st0" d="M-66.6,52.2c0.1-0.5,0.2-1,0.3-1.5c0.1-0.3,0.2-0.6,0.3-0.9c1.2-3.3,3.8-7.6,9.6-12.6l1.4-1.2
		c1.9-1.5,3.9-2.9,6-4.2l0,0c5.3-3.4,12.5-6.5,21.1-10.4c4.9-2.3,6.4-4.5,7.1-5.9c0.7-1.2,0.8-2.6,0.1-3.8c-0.3-0.5-1.4-1.8-4.1-1.8
		c-1.2,0-2.5,0.2-3.6,0.5C-44.5,14.6-58.3,25.7-63,32c-1.9,2.5-3.4,5.2-4.5,8.1c-0.6,1.8-1,3.6-1.2,5.5c-0.4,4.8,1.5,8.7,2,10.2
		c0,0,0-0.1,0-0.3C-66.8,54.4-66.8,53.3-66.6,52.2"/>
	<path class="st2" d="M-42.6,58.7c-0.1-0.3-0.3-0.7-0.6-0.9c-0.7-0.7-1.7-1-2.7-0.6c-2.1,0.6-4.1,1.6-5.9,2.9
		c-0.6,0.4-1.2,0.8-1.8,1.3c-2.4,2-5.5,4.8-6.7,8.4l0,0v0.1c-0.3,0.9-0.5,1.8-0.6,2.7c0,1.3,0.1,2.5,0.5,3.7
		c0.1,0.2,0.1,0.3,0.1,0.5c0.1-0.3,0.2-0.6,0.3-0.9c0-0.1,0.1-0.2,0.1-0.4c1.7-4,5.8-7.4,13-11.2c2.8-1.5,3.9-3.2,4.1-4.3
		C-42.5,59.6-42.5,59.1-42.6,58.7"/>
	<path class="st2" d="M-52.8,81.2c-0.4-0.3-0.7-0.5-1.1-0.8c0,0,0,0-0.1,0H-54l-0.1-0.1l-1.2-0.8l-0.4-0.2l-0.1-0.1
		c-0.5,0.6-0.8,1.3-1,2c-0.4,0.9-0.1,2,0.7,2.6c0.6,0.4,1.1,0.7,1.4,0.9c0.3,0.2,0.7,0.4,1.1,0.5c0.3,0.1,0.7,0.2,1,0.2
		c0.1,0,0.2,0,0.3,0c0.1,0,0.2-0.1,0.3-0.1c0.1-0.1,0.2-0.1,0.2-0.2c0.7-1,0.6-2.4-0.2-3.3C-52.3,81.6-52.6,81.4-52.8,81.2"/>
</g>
<rect class="st3" width="283.5" height="141.7"/>
<g>
	<path class="st0" d="M199.6,93c-1.2-0.8-2.5-1.6-3.8-2.2c0,0,4.2-4.7,5.3-6.9c1.2-2.5,1.8-5.3,1.7-8.1c0-0.6,0-1.2-0.1-1.8
		c-0.2-3.7-1.5-7.2-3.9-10c-3.9-4.5-9.7-8.2-19-8.2c-2.1-0.1-3.9-0.1-5.5,0H172h-26c-2.2-0.1-4.1,1.6-4.2,3.8v3
		c0.1,2.2,2.1,3.9,4.3,3.8h2.7c0.6,0,1,0.4,1,1V128c0.1,2.2,1.9,3.9,4.2,3.8c0,0,0,0,0,0h19.4c3,0,6.3-0.2,9.8-0.5
		c3.7-0.3,7.3-1.2,10.7-2.7c3.5-1.5,6.5-4.6,8.9-7.5c2.5-3.1,3.8-7.2,3.8-12.2l0,0l0,0c0.1-3.2-0.6-6.5-1.9-9.4
		C203.5,97.1,201.8,94.9,199.6,93 M168.8,67.7c1-0.1,2-0.2,3-0.2c1.8,0,3.6,0.2,5.4,0.5c1.3,0.2,2.6,0.7,3.7,1.4
		c0.9,0.6,1.7,1.5,2.2,2.5c0.1,0.1,0.1,0.3,0.2,0.4c0.5,1.3,0.7,2.8,0.7,4.2c0,2.4-0.4,4.2-1.3,5.3c-0.9,1.1-2,2-3.3,2.6
		c-1.5,0.6-3.1,1-4.8,1.1c-2.1,0.1-4.2,0-5.7,0L168.8,67.7z M186.5,113.9c-0.7,1.2-1.7,2.3-2.9,3c-1.4,0.8-2.9,1.4-4.5,1.8
		c-1.9,0.4-3.8,0.6-5.8,0.6c-1.5,0-3.1,0-4.6-0.2c-0.1,0,0.1,0,0,0c0-0.3,0-21.7,0-21.7c2.2,0,4.9,0.1,7.5,0.3c2,0.2,4,0.7,5.9,1.5
		c1.6,0.7,3,1.9,4,3.3c1,1.4,1.5,3.6,1.5,6.4C187.7,110.7,187.3,112.5,186.5,113.9"/>
	<path class="st0" d="M50.7,55.8H32.5c-0.7,0-1.4,0.2-2.1,0.5l-0.1,0.1l-0.2,0.1c-1.1,0.7-1.9,1.9-1.9,3.2v3.2
		c0.1,2.2,1.9,3.9,4.1,3.8c0,0,0.1,0,0.1,0h2.8c0.5,0,1,0.4,1.1,0.9c0,0.7-0.1,1.7-0.1,2.6v57.8c0,0.3,0,0.6,0.1,0.8
		c0.5,1.9,2.2,3.1,4.1,3.1h1.6l0,0h8.6c2.3,0.1,4.2-1.6,4.3-3.9V59.7C54.9,57.4,53,55.7,50.7,55.8"/>
	<path class="st0" d="M137.6,55.8h-0.5h-6.3H123c-1.7,0-3.3,1-4,2.6c-0.8,2-2.2,5.3-4,9.9l-3,7.2l-3.9,9.8c-1.5,3.8-3.2,8-5.2,12.8
		c-0.7,1.6-1.3,3.3-2,5l-2-5c-2-4.8-3.7-9-5.2-12.8c-1.5-3.7-2.8-7-3.9-9.8l-2.9-7.2c-1.9-4.5-3.3-7.9-4-9.9c-0.7-1.6-2.3-2.6-4-2.6
		H62.2c-2.2-0.1-4.1,1.6-4.2,3.8v3.2c0.1,2.2,1.9,3.9,4.1,3.8h2.6c2.2,0,2.7,1.9,4.2,5.5l23.5,57.2c0.7,1.6,2.3,2.6,4,2.5h9.2
		c1,0,2-0.3,2.8-0.9c0.6-0.4,1-1,1.3-1.6l20.8-50.6l2.7-6.6c0.3-0.7,0.6-1.3,0.9-2l4.6-11l0.4-0.9c0.5-0.7,0.2-1.7-0.5-2.2
		C138.2,55.9,137.9,55.8,137.6,55.8"/>
	<path class="st0" d="M233.2,52.3c4.3-2.1,5.9-4,6.4-5.7c0.2-0.6,0.2-1.1,0.1-1.7c-0.1-0.4-0.3-0.8-0.6-1.1
		c-0.4-0.5-1.1-1.2-3.2-0.8c-1,0.2-1.9,0.4-2.8,0.8l-0.5,0.2l0.5-0.2l-1.2,0.6c-0.8,0.4-1.6,0.8-2.4,1.2l0.7-0.4l-0.8,0.4
		c-2.6,1.3-5.1,2.9-7.5,4.7c-2.2,1.7-4.1,3.6-5.9,5.7c-1.3,1.6-2.4,3.4-3.1,5.4l-0.1,0.3c-0.3,1.1-0.6,2.2-0.7,3.4
		c-0.1,2,0.2,4,0.9,5.9c0.1,0.2,0.1,0.5,0.2,0.7C213.4,70.7,213.9,61.7,233.2,52.3"/>
	<path class="st0" d="M227.1,68.6c-0.6-0.5-1.4-0.6-2.1-0.3c-2,0.8-3.8,2-5.4,3.5h-0.1c-1.2,1.1-2.2,2.5-3,4
		c-0.9,1.8-0.8,3.9,0.1,5.6c0.1,0.1,0.1,0.2,0.2,0.3c0.2,0.4,0.5,0.7,0.8,1c0-0.2,0-0.4,0-0.6c0-0.5,0.1-1,0.2-1.5
		c0.3-1,0.7-1.9,1.3-2.7c0.5-0.6,1-1.2,1.6-1.7c0.6-0.5,1.2-1,1.9-1.4c1.1-0.7,2.2-1.4,3.2-2.2c0.6-0.5,1.2-1.1,1.5-1.8
		c0.3-0.6,0.4-1.4,0.1-2C227.3,68.8,227.2,68.7,227.1,68.6"/>
	<path class="st1" d="M247,28.3c-0.3-0.5-0.8-1.3-3.3-1.2c-2.3,0.2-4.6,0.8-6.8,1.8l-0.7,0.3L237,29c-1.7,0.7-3.7,1.6-5.8,2.8
		l1.2-0.6l-1.3,0.7c-3.1,1.7-6.1,3.6-9,5.6c-2.9,2-5.5,4.5-7.6,7.3c-1.6,2.1-2.9,4.4-3.9,6.9c-0.8,2.3-1.2,4.8-0.9,7.3
		c0.2,1.5,0.5,3,1,4.5c0.1,0.4,0.2,0.7,0.3,1c0.1-1.2,0.3-2.3,0.7-3.4c0.1-0.3,0.2-0.6,0.4-0.8s0.3-0.6,0.4-0.9s0.3-0.6,0.4-0.9
		s0.3-0.6,0.5-1s0.4-0.7,0.6-1s0.5-0.7,0.7-1s0.5-0.7,0.8-1.1s0.6-0.8,0.9-1.2s0.7-0.8,1.1-1.2s0.8-0.8,1.2-1.2s0.9-0.8,1.3-1.2
		s1-0.8,1.5-1.3s1.1-0.9,1.6-1.3s1.2-0.9,1.8-1.3s1.4-0.9,2-1.3s1.5-0.9,2.2-1.3s1.6-0.9,2.4-1.3s1.7-0.9,2.5-1.3l2.7-1.3
		c2.6-1.1,5.1-2.5,7.4-4.2c0.9-0.6,1.6-1.4,2.3-2.3c0.3-0.4,0.5-0.7,0.7-1.2C247.7,30.4,247.6,29.3,247,28.3"/>
	<path class="st0" d="M208.7,52.2c0.1-0.5,0.2-1,0.3-1.5c0.1-0.3,0.2-0.6,0.3-0.9c1.2-3.3,3.8-7.6,9.6-12.6l1.4-1.2
		c1.9-1.5,3.9-2.9,6-4.2l0,0c5.3-3.4,12.5-6.5,21.1-10.4c4.9-2.3,6.4-4.5,7.1-5.9c0.7-1.2,0.8-2.6,0.1-3.8c-0.3-0.5-1.4-1.8-4.1-1.8
		c-1.2,0-2.5,0.2-3.6,0.5C230.8,14.5,217,25.6,212.3,32c-1.9,2.5-3.4,5.2-4.5,8.1c-0.6,1.8-1,3.6-1.2,5.5c-0.4,4.8,1.5,8.7,2,10.2
		c0,0,0-0.1,0-0.3C208.5,54.4,208.5,53.3,208.7,52.2"/>
	<path class="st2" d="M232.7,58.7c-0.1-0.3-0.3-0.7-0.6-0.9c-0.7-0.7-1.7-1-2.7-0.6c-2.1,0.6-4.1,1.6-5.9,2.9
		c-0.6,0.4-1.2,0.8-1.8,1.3c-2.4,2-5.5,4.8-6.7,8.4l0,0v0.1c-0.3,0.9-0.5,1.8-0.6,2.7c0,1.3,0.1,2.5,0.5,3.7
		c0.1,0.2,0.1,0.3,0.1,0.5c0.1-0.3,0.2-0.6,0.3-0.9c0-0.1,0.1-0.2,0.1-0.4c1.7-4,5.8-7.4,13-11.2c2.8-1.5,3.9-3.2,4.1-4.3
		C232.8,59.6,232.8,59.1,232.7,58.7"/>
	<path class="st2" d="M222.5,81.2c-0.4-0.3-0.7-0.5-1.1-0.8c0,0,0,0-0.1,0h-0.1l-0.1-0.1l-1.2-0.8l-0.4-0.2l-0.1-0.1
		c-0.5,0.6-0.8,1.3-1,2c-0.4,0.9-0.1,2,0.7,2.6c0.6,0.4,1.1,0.7,1.4,0.9c0.3,0.2,0.7,0.4,1.1,0.5c0.3,0.1,0.7,0.2,1,0.2
		c0.1,0,0.2,0,0.3,0c0.1,0,0.2-0.1,0.3-0.1c0.1-0.1,0.2-0.1,0.2-0.2c0.7-1,0.6-2.4-0.2-3.3C223,81.6,222.7,81.3,222.5,81.2"/>
</g>
</svg>
