<?xml version="1.0" encoding="utf-8"?>
<!-- Generator: Adobe Illustrator 24.2.0, SVG Export Plug-In . SVG Version: 6.00 Build 0)  -->
<svg version="1.1" id="Layer_1" xmlns="http://www.w3.org/2000/svg" xmlns:xlink="http://www.w3.org/1999/xlink" x="0px" y="0px"
	 viewBox="0 0 769 769" style="enable-background:new 0 0 769 769;" xml:space="preserve">
<style type="text/css">
	.st0{fill:#FFDE00;}
	.st1{fill:#0171BB;}
</style>
<rect x="0" y="0" class="st0" width="769" height="769"/>
<polygon class="st1" points="99.8,350.9 118.2,350.9 118.2,418.9 90.3,418.9 63.2,373.6 63.1,418.9 44.8,418.9 44.7,350.8 
	72.5,350.9 99.1,396.1 "/>
<g>
	<path class="st1" d="M148.1,350.9l24.6,0l27.3,67.9l-20.8,0c0,0-3-7.8-4.6-11.7c-9.2,0-27.5,0-27.5,0l-5.3,11.7l-20.2,0.1
		L148.1,350.9z M152.6,392.2l16.3,0l-8.2-21.3L152.6,392.2z"/>
</g>
<g>
	<path class="st1" d="M344.8,350.9c0,0,16.6-0.1,24.9,0.1c6.8,17.9,21.4,53.3,21.4,53.3l5.4,14.5l-20.3,0l-4.6-11.7l-28.1,0
		l-4.6,11.8h-20.3L344.8,350.9z M357.5,371.4l-8,21l16.1,0L357.5,371.4z"/>
</g>
<g>
	<path class="st1" d="M461.5,350.9c5.7,0.1,11.8,0.6,16.6,4c5.4,4,6,11.4,5.7,17.6c0,4-1.9,7.5-4,10.8c-0.3,0-0.9,0-1.2,0.1
		c5.3,2,6.8,8.1,7,13.2c0.2,6.4-0.5,14-6.2,18c-6.4,4.4-14.5,4.4-21.9,4.3c-12.5,0-25,0-37.5,0c0-22.6,0-45.3,0-67.9
		C433.9,350.9,447.7,350.8,461.5,350.9z M440,367c-0.1,3.3,0,9.8,0,9.8s15.4,0.7,23-0.9c1.7-0.7,2.1-6.6,0.9-7.9
		C459.2,365.8,448.1,366.6,440,367z M440,391.9c0,0-0.1,7.3,0,10.9c7.9,0.2,22.8,0.5,24.7-0.9c1.7-1.6,1.8-7.7,0.1-9.6
		C462.1,390.8,440,391.9,440,391.9z"/>
</g>
<g>
	<path class="st1" d="M513.1,350.9h24.7l27.7,67.7l-21.1,0.2l-4.6-11.7l-27.5-0.1l-5,11.9l-20.5-0.1L513.1,350.9z M517.6,392.3
		l16.4,0l-8.4-21.1L517.6,392.3z"/>
</g>
<polygon class="st1" points="624.3,351 643.2,350.9 643.1,418.9 615.3,418.9 588.2,373.6 588.1,418.9 569.1,418.8 569.1,351 
	597.5,351 624,395.5 "/>
<polygon class="st1" points="650,350.9 670,350.9 670,376.2 672.2,376.1 695.6,351.3 721.7,351 689.7,384.3 705.5,399.3 
	713.6,407.4 724.1,417.4 724.2,418.9 699.5,418.7 672.6,392.6 669.9,392.6 669.9,418.8 650,418.9 "/>
<polygon class="st1" points="204.1,350.9 232,350.9 250.3,392.6 267.9,350.8 295.9,350.9 295.9,418.8 277,418.9 276.8,376.6 
	258,418.9 242.1,418.9 223.3,377.4 223.1,418.9 204.2,418.8 204.2,418.1 "/>
</svg>
