<?xml version="1.0" encoding="UTF-8" standalone="no"?>
<svg
   xmlns:dc="http://purl.org/dc/elements/1.1/"
   xmlns:cc="http://creativecommons.org/ns#"
   xmlns:rdf="http://www.w3.org/1999/02/22-rdf-syntax-ns#"
   xmlns:svg="http://www.w3.org/2000/svg"
   xmlns="http://www.w3.org/2000/svg"
   viewBox="0 0 684.36798 277.18668"
   height="277.18668"
   width="684.36798"
   xml:space="preserve"
   id="svg2"
   version="1.1"><metadata
     id="metadata8"><rdf:RDF><cc:Work
         rdf:about=""><dc:format>image/svg+xml</dc:format><dc:type
           rdf:resource="http://purl.org/dc/dcmitype/StillImage" /></cc:Work></rdf:RDF></metadata><defs
     id="defs6"><linearGradient
       id="linearGradient30"
       spreadMethod="pad"
       gradientTransform="matrix(118.94552,0,0,-118.94552,65.829208,86.307167)"
       gradientUnits="userSpaceOnUse"
       y2="0"
       x2="1"
       y1="0"
       x1="0"><stop
         id="stop24"
         offset="0"
         style="stop-opacity:1;stop-color:#354571" /><stop
         id="stop26"
         offset="0.2583638"
         style="stop-opacity:1;stop-color:#354571" /><stop
         id="stop28"
         offset="1"
         style="stop-opacity:1;stop-color:#2e60a5" /></linearGradient><linearGradient
       id="linearGradient56"
       spreadMethod="pad"
       gradientTransform="matrix(97.075821,0,0,-97.075821,76.726074,91.938286)"
       gradientUnits="userSpaceOnUse"
       y2="0"
       x2="1"
       y1="0"
       x1="0"><stop
         id="stop46"
         offset="0"
         style="stop-opacity:1;stop-color:#6e7398" /><stop
         id="stop48"
         offset="0.1351823"
         style="stop-opacity:1;stop-color:#6e7398" /><stop
         id="stop50"
         offset="0.515335"
         style="stop-opacity:1;stop-color:#ffffff" /><stop
         id="stop52"
         offset="0.86579742"
         style="stop-opacity:1;stop-color:#6e7398" /><stop
         id="stop54"
         offset="1"
         style="stop-opacity:1;stop-color:#6e7398" /></linearGradient><clipPath
       id="clipPath66"
       clipPathUnits="userSpaceOnUse"><path
         id="path64"
         d="M 0,207.89 H 513.276 V 0 H 0 Z" /></clipPath><linearGradient
       id="linearGradient166"
       spreadMethod="pad"
       gradientTransform="matrix(16.380608,46.308083,46.308083,-16.380608,114.86986,92.798103)"
       gradientUnits="userSpaceOnUse"
       y2="0"
       x2="1"
       y1="0"
       x1="0"><stop
         id="stop160"
         offset="0"
         style="stop-opacity:1;stop-color:#2c65ad" /><stop
         id="stop162"
         offset="0.4565749"
         style="stop-opacity:1;stop-color:#2c65ad" /><stop
         id="stop164"
         offset="1"
         style="stop-opacity:1;stop-color:#313756" /></linearGradient><linearGradient
       id="linearGradient188"
       spreadMethod="pad"
       gradientTransform="matrix(0,-34.884434,-34.884434,0,127.93563,172.05536)"
       gradientUnits="userSpaceOnUse"
       y2="0"
       x2="1"
       y1="0"
       x1="0"><stop
         id="stop182"
         offset="0"
         style="stop-opacity:1;stop-color:#ed373a" /><stop
         id="stop184"
         offset="0.42705886"
         style="stop-opacity:1;stop-color:#ed373a" /><stop
         id="stop186"
         offset="1"
         style="stop-opacity:1;stop-color:#752d2e" /></linearGradient><linearGradient
       id="linearGradient210"
       spreadMethod="pad"
       gradientTransform="matrix(8.5006485,-35.575306,-35.575306,-8.5006485,100.38904,152.20317)"
       gradientUnits="userSpaceOnUse"
       y2="0"
       x2="1"
       y1="0"
       x1="0"><stop
         id="stop204"
         offset="0"
         style="stop-opacity:1;stop-color:#2c65ad" /><stop
         id="stop206"
         offset="0.32400003"
         style="stop-opacity:1;stop-color:#2c65ad" /><stop
         id="stop208"
         offset="1"
         style="stop-opacity:1;stop-color:#313756" /></linearGradient><linearGradient
       id="linearGradient232"
       spreadMethod="pad"
       gradientTransform="matrix(37.23576,0,0,-37.23576,130.55959,136.63417)"
       gradientUnits="userSpaceOnUse"
       y2="0"
       x2="1"
       y1="0"
       x1="0"><stop
         id="stop226"
         offset="0"
         style="stop-opacity:1;stop-color:#752d2e" /><stop
         id="stop228"
         offset="0.03127059"
         style="stop-opacity:1;stop-color:#752d2e" /><stop
         id="stop230"
         offset="1"
         style="stop-opacity:1;stop-color:#ec3a3b" /></linearGradient><clipPath
       id="clipPath242"
       clipPathUnits="userSpaceOnUse"><path
         id="path240"
         d="M 0,207.89 H 513.276 V 0 H 0 Z" /></clipPath></defs><g
     transform="matrix(1.3333333,0,0,-1.3333333,0,277.18667)"
     id="g10"><g
       id="g12"><g
         id="g14"><g
           id="g20"><g
             id="g22"><path
               id="path32"
               style="fill:url(#linearGradient30);stroke:none"
               d="M 124.814,98 C 89.826,98 61.547,92.841 61.537,86.408 v 0 C 61.516,79.954 90.113,74.669 125.398,74.615 v 0 c 35.263,-0.074 63.871,5.138 63.882,11.582 v 0 c 0,6.464 -28.587,11.761 -63.861,11.803 v 0 z M 79.58,84.152 c -0.974,0 -1.77,0.803 -1.77,1.782 v 0 c 0,0.99 0.796,1.777 1.77,1.794 v 0 h 91.361 v -0.017 c 0.964,-0.038 1.746,-0.825 1.746,-1.8 v 0 c 0,-0.956 -0.782,-1.759 -1.746,-1.782 v 0 H 79.58 Z" /></g></g></g></g><g
       id="g34"><g
         id="g36"><g
           id="g42"><g
             id="g44"><path
               id="path58"
               style="fill:url(#linearGradient56);stroke:none"
               d="m 124.685,98.138 c -19.298,0 -36.516,-1.614 -47.959,-4.182 v 0 l 1.085,-8.001 c 0.013,0.981 0.803,1.756 1.769,1.773 v 0 h 91.361 v -0.017 c 0.964,-0.038 1.746,-0.825 1.746,-1.8 v 0 c 0,-0.058 -0.012,-0.114 -0.018,-0.172 v 0 h 0.018 l 1.115,8.036 c -11.55,2.632 -29.012,4.32 -48.544,4.363 v 0 z" /></g></g></g></g><g
       id="g60"><g
         clip-path="url(#clipPath66)"
         id="g62"><g
           transform="translate(48.7646,34.0021)"
           id="g68"><path
             id="path70"
             style="fill:#2b5aa3;fill-opacity:1;fill-rule:nonzero;stroke:none"
             d="m 0,0 -14.561,16.388 c -0.742,0.941 -1.959,1.528 -3.1,1.528 h -1.379 c -1.81,0 -3.272,-1.538 -3.272,-3.427 V -6.467 h 5.143 V 11.438 L -2.634,-4.937 c 0.746,-0.931 1.975,-1.53 3.094,-1.53 h 1.422 c 1.789,0 3.244,1.552 3.244,3.467 v 20.916 l -5.126,0 z" /></g><g
           transform="translate(64.9751,37.0138)"
           id="g72"><path
             id="path74"
             style="fill:#2b5aa3;fill-opacity:1;fill-rule:nonzero;stroke:none"
             d="m 0,0 h 12.573 v -3.056 c 0,-0.552 -0.421,-0.997 -0.924,-0.997 H -3.698 c -0.51,0 -0.919,0.445 -0.919,0.997 V 8.472 c 0,0.569 0.409,1.051 0.919,1.051 h 20.7 v 5.381 h -20.7 c -3.344,0 -6.062,-2.879 -6.062,-6.432 V -3.056 c 0,-3.538 2.718,-6.427 6.062,-6.427 h 15.347 c 3.322,0 6.035,2.889 6.035,6.427 V 5.432 H 0 Z" /></g><g
           transform="translate(89.2471,45.4855)"
           id="g76"><path
             id="path78"
             style="fill:#2b5aa3;fill-opacity:1;fill-rule:nonzero;stroke:none"
             d="m 0,0 c 0,0.569 0.398,1.039 0.908,1.039 h 15.347 c 0.509,0 0.919,-0.47 0.919,-1.039 V -3.051 H 0 Z M 16.255,6.433 H 0.908 C -2.419,6.433 -5.149,3.537 -5.149,0 V -17.95 H 0 v 9.479 H 17.174 V -17.95 H 22.29 V 0 c 0,3.537 -2.702,6.433 -6.035,6.433" /></g><g
           transform="translate(135.3213,34.0021)"
           id="g80"><path
             id="path82"
             style="fill:#2b5aa3;fill-opacity:1;fill-rule:nonzero;stroke:none"
             d="m 0,0 -14.561,16.388 c -0.742,0.941 -1.96,1.528 -3.101,1.528 h -1.372 c -1.811,0 -3.278,-1.538 -3.278,-3.427 V -6.467 h 5.138 V 11.438 L -2.635,-4.937 c 0.753,-0.931 1.97,-1.53 3.094,-1.53 h 1.423 c 1.783,0 3.233,1.552 3.233,3.467 v 20.916 l -5.115,0 z" /></g><g
           transform="translate(174.9287,42.4454)"
           id="g84"><path
             id="path86"
             style="fill:#2b5aa3;fill-opacity:1;fill-rule:nonzero;stroke:none"
             d="m 0,0 h -17.185 v 9.473 h -5.149 V -14.91 h 5.149 v 9.479 H 0 V -14.91 H 5.115 V 9.473 H 0 Z" /></g><g
           transform="translate(186.6328,45.4855)"
           id="g88"><path
             id="path90"
             style="fill:#2b5aa3;fill-opacity:1;fill-rule:nonzero;stroke:none"
             d="m 0,0 c 0,0.569 0.404,1.039 0.908,1.039 h 15.335 c 0.516,0 0.931,-0.47 0.931,-1.039 V -3.051 H 0 Z M 16.243,6.433 H 0.908 C -2.435,6.433 -5.16,3.537 -5.16,0 V -17.95 H 0 v 9.479 h 17.174 v -9.479 h 5.104 V 0 c 0,3.537 -2.717,6.433 -6.035,6.433" /></g><g
           transform="translate(232.6235,34.0021)"
           id="g92"><path
             id="path94"
             style="fill:#2b5aa3;fill-opacity:1;fill-rule:nonzero;stroke:none"
             d="m 0,0 -14.561,16.388 c -0.747,0.941 -1.976,1.528 -3.095,1.528 h -1.395 c -1.793,0 -3.266,-1.538 -3.266,-3.427 V -6.467 h 5.149 V 11.438 L -2.641,-4.937 c 0.742,-0.931 1.971,-1.53 3.1,-1.53 h 1.407 c 1.793,0 3.255,1.552 3.255,3.467 v 20.916 l -5.121,0 z" /></g><g
           transform="translate(248.8784,37.0138)"
           id="g96"><path
             id="path98"
             style="fill:#2b5aa3;fill-opacity:1;fill-rule:nonzero;stroke:none"
             d="m 0,0 h 12.562 v -3.056 c 0,-0.552 -0.41,-0.997 -0.93,-0.997 H -3.705 c -0.497,0 -0.912,0.445 -0.912,0.997 V 8.472 c 0,0.569 0.415,1.051 0.912,1.051 h 20.703 v 5.381 H -3.705 c -3.332,0 -6.066,-2.879 -6.066,-6.432 V -3.056 c 0,-3.538 2.734,-6.427 6.066,-6.427 h 15.337 c 3.344,0 6.045,2.889 6.045,6.427 V 5.432 H 0 Z" /></g><g
           transform="translate(97.5518,56.17)"
           id="g100"><path
             id="path102"
             style="fill:#2b5aa3;fill-opacity:1;fill-rule:nonzero;stroke:none"
             d="M 0,0 6.799,-3.299 8.548,0.754 0,4.916 -8.548,0.754 -6.789,-3.299 Z" /></g><g
           transform="translate(199.9868,56.924)"
           id="g104"><path
             id="path106"
             style="fill:#2b5aa3;fill-opacity:1;fill-rule:nonzero;stroke:none"
             d="m 0,0 -9.046,4.405 -1.739,-4.051 9.046,-4.429 z" /></g><g
           transform="translate(300.6611,51.9181)"
           id="g108"><path
             id="path110"
             style="fill:#2b5aa3;fill-opacity:1;fill-rule:nonzero;stroke:none"
             d="m 0,0 h -15.358 c -3.333,0 -6.046,-2.879 -6.046,-6.443 v -11.494 c 0,-3.561 2.713,-6.451 6.046,-6.451 h 10.64 v 11.943 H -9.84 v -6.512 h -5.518 c -0.493,0 -0.897,0.465 -0.897,1.02 v 11.494 c 0,0.586 0.404,1.05 0.897,1.05 H 0 c 0.504,0 0.906,-0.464 0.906,-1.05 v -11.494 c 0,-0.555 -0.402,-1.02 -0.906,-1.02 h -3.267 v -5.431 H 0 c 3.326,0 6.022,2.89 6.022,6.451 V -6.443 C 6.022,-2.879 3.326,0 0,0" /></g><g
           transform="translate(330.4912,33.9806)"
           id="g112"><path
             id="path114"
             style="fill:#2b5aa3;fill-opacity:1;fill-rule:nonzero;stroke:none"
             d="m 0,0 c 0,-0.576 -0.404,-1.02 -0.908,-1.02 h -15.347 c -0.504,0 -0.92,0.444 -0.92,1.02 v 17.937 h -5.138 V 0 c 0,-3.56 2.714,-6.449 6.058,-6.449 h 15.347 c 3.322,0 6.035,2.889 6.035,6.449 V 17.937 H 0 Z" /></g><g
           transform="translate(342.251,45.4855)"
           id="g116"><path
             id="path118"
             style="fill:#2b5aa3;fill-opacity:1;fill-rule:nonzero;stroke:none"
             d="m 0,0 c 0,0.569 0.409,1.039 0.906,1.039 h 15.36 c 0.492,0 0.907,-0.47 0.907,-1.039 v -11.526 c 0,-0.533 -0.415,-0.987 -0.907,-0.987 H 0.906 C 0.409,-12.513 0,-12.059 0,-11.526 Z M 16.266,6.433 H 0.906 C -2.426,6.433 -5.15,3.537 -5.15,0 v -11.526 c 0,-3.538 2.724,-6.424 6.056,-6.424 h 15.36 c 3.321,0 6.017,2.886 6.017,6.424 V 0 c 0,3.537 -2.696,6.433 -6.017,6.433" /></g><g
           transform="translate(365.9795,45.4855)"
           id="g120"><path
             id="path122"
             style="fill:#2b5aa3;fill-opacity:1;fill-rule:nonzero;stroke:none"
             d="m 0,0 v -11.526 c 0,-3.538 2.723,-6.424 6.062,-6.424 h 20.701 v 5.437 H 6.062 c -0.504,0 -0.913,0.454 -0.913,0.987 L 5.149,0 c 0,0.569 0.409,1.039 0.913,1.039 H 26.763 V 6.433 H 6.062 C 2.723,6.433 0,3.537 0,0" /></g><g
           transform="translate(409.8828,46.5255)"
           id="g124"><path
             id="path126"
             style="fill:#2b5aa3;fill-opacity:1;fill-rule:nonzero;stroke:none"
             d="m 0,0 h 16.261 c 0.492,0 0.903,-0.471 0.903,-1.039 v -11.528 c 0,-0.533 -0.411,-0.987 -0.903,-0.987 H 0 Z M 16.261,5.393 H -5.16 V -18.99 h 21.421 c 3.327,0 6.018,2.885 6.018,6.423 v 11.528 c 0,3.537 -2.691,6.432 -6.018,6.432" /></g><g
           transform="translate(438.6992,45.4855)"
           id="g128"><path
             id="path130"
             style="fill:#2b5aa3;fill-opacity:1;fill-rule:nonzero;stroke:none"
             d="M 0,0 C 0,0.569 0.416,1.039 0.904,1.039 H 16.255 C 16.76,1.039 17.17,0.569 17.17,0 V -3.051 H 0 Z M 16.255,6.433 H 0.904 C -2.43,6.433 -5.153,3.537 -5.153,0 V -17.95 H 0 v 9.479 h 17.17 v -9.479 h 5.115 V 0 c 0,3.537 -2.696,6.433 -6.03,6.433" /></g><g
           transform="translate(484.6582,51.9181)"
           id="g132"><path
             id="path134"
             style="fill:#2b5aa3;fill-opacity:1;fill-rule:nonzero;stroke:none"
             d="M 0,0 V -17.916 L -14.55,-1.522 C -15.297,-0.597 -16.51,0 -17.65,0 h -1.373 c -1.817,0 -3.279,-1.538 -3.279,-3.427 v -20.961 h 5.134 v 17.906 l 14.544,-16.372 c 0.742,-0.93 1.959,-1.534 3.1,-1.534 h 1.406 c 1.795,0 3.245,1.557 3.245,3.472 L 5.127,0 Z" /></g><g
           transform="translate(350.8428,56.17)"
           id="g136"><path
             id="path138"
             style="fill:#2b5aa3;fill-opacity:1;fill-rule:nonzero;stroke:none"
             d="M 0,0 6.81,-3.299 8.537,0.754 0,4.916 -8.536,0.754 -6.81,-3.299 Z" /></g><g
           transform="translate(446.9209,56.17)"
           id="g140"><path
             id="path142"
             style="fill:#2b5aa3;fill-opacity:1;fill-rule:nonzero;stroke:none"
             d="M 0,0 6.789,-3.299 8.538,0.742 0,4.916 -8.542,0.754 -6.791,-3.299 Z" /></g><g
           transform="translate(370.6299,57.2784)"
           id="g144"><path
             id="path146"
             style="fill:#2b5aa3;fill-opacity:1;fill-rule:nonzero;stroke:none"
             d="m 0,0 -1.738,4.051 -9.046,-4.405 1.748,-4.076 z" /></g></g></g><g
       id="g148"><g
         id="g150"><g
           id="g156"><g
             id="g158"><path
               id="path168"
               style="fill:url(#linearGradient166);stroke:none"
               d="m 82.017,136.526 c -0.04,-24.15 19.51,-43.794 43.676,-43.815 v 0 c 16.505,-0.034 30.904,9.097 38.372,22.599 v 0 c 0.638,1.756 0.998,3.655 1.003,5.619 v 0 c 0.017,8.974 -7.237,16.244 -16.211,16.262 v 0 c -4.479,0.016 -8.531,-1.795 -11.482,-4.729 v 0 l -9.91,-9.788 c -4.766,-5.06 -11.538,-8.194 -19.039,-8.194 v 0 c -14.428,0.044 -26.116,11.759 -26.089,26.198 v 0 c 0,0.372 0.011,0.803 0.028,1.213 v 0 c -0.226,-1.756 -0.339,-3.549 -0.348,-5.365" /></g></g></g></g><g
       id="g170"><g
         id="g172"><g
           id="g178"><g
             id="g180"><path
               id="path190"
               style="fill:url(#linearGradient188);stroke:none"
               d="m 125.765,180.197 c -16.299,0 -30.5,-8.909 -38.029,-22.134 v 0 c -0.891,-2.004 -1.39,-4.22 -1.39,-6.556 v 0 c -0.022,-8.963 7.235,-16.232 16.21,-16.249 v 0 c 4.474,-0.016 8.537,1.8 11.483,4.717 v 0 l 9.922,9.783 c 4.771,5.054 11.526,8.205 19.022,8.199 v 0 c 14.439,-0.027 26.126,-11.759 26.089,-26.193 v 0 c 0,-0.553 -0.023,-1.195 -0.056,-1.815 v 0 c 0.316,2.11 0.487,4.241 0.487,6.421 v 0 c 0.044,24.172 -19.499,43.783 -43.667,43.827 v 0 z" /></g></g></g></g><g
       id="g192"><g
         id="g194"><g
           id="g200"><g
             id="g202"><path
               id="path212"
               style="fill:url(#linearGradient210);stroke:none"
               d="m 82.365,141.891 c -0.017,-0.41 -0.028,-0.841 -0.028,-1.213 v 0 C 82.31,126.239 93.998,114.524 108.426,114.48 v 0 c 6.786,0 12.987,2.586 17.656,6.833 v 0 l -15.818,15.86 c -2.299,-1.233 -4.917,-1.931 -7.708,-1.915 v 0 c -8.975,0.017 -16.232,7.286 -16.21,16.249 v 0 c 0,2.336 0.499,4.552 1.39,6.556 v 0 C 84.95,153.191 83.08,147.71 82.365,141.891" /></g></g></g></g><g
       id="g214"><g
         id="g216"><g
           id="g222"><g
             id="g224"><path
               id="path234"
               style="fill:url(#linearGradient232);stroke:none"
               d="m 142.188,157.947 c -6.329,-0.183 -12.12,-2.627 -16.555,-6.55 v 0 l 15.9,-15.944 c 2.202,1.094 4.689,1.738 7.324,1.738 v 0 c 8.974,-0.018 16.228,-7.288 16.211,-16.262 v 0 c -0.005,-1.96 -0.363,-3.854 -0.998,-5.607 v 0 h 0.003 c 2.455,4.471 4.163,9.405 4.943,14.627 v 0 c 0.033,0.62 0.056,1.262 0.056,1.815 v 0 c 0.036,14.213 -11.277,25.771 -25.393,26.183 v 0 z" /></g></g></g></g><g
       id="g236"><g
         clip-path="url(#clipPath242)"
         id="g238"><g
           transform="translate(258.5234,124.191)"
           id="g244"><path
             id="path246"
             style="fill:#ed383a;fill-opacity:1;fill-rule:nonzero;stroke:none"
             d="m 0,0 -39.569,40.897 c -1.762,2.032 -4.618,3.35 -7.252,3.35 h -3.683 c -4.102,0 -7.429,-3.289 -7.429,-7.347 v -51.14 h 11.599 v 44.346 l 39.585,-41.024 c 1.759,-2.026 4.617,-3.344 7.264,-3.344 h 3.753 c 4.053,0 7.352,3.322 7.352,7.43 v 51.079 l -11.62,0 z" /></g><g
           transform="translate(281.6816,153.7555)"
           id="g248"><path
             id="path250"
             style="fill:#ed383a;fill-opacity:1;fill-rule:nonzero;stroke:none"
             d="M 0,0 V -29.077 C 0,-37.172 6.544,-43.76 14.572,-43.76 h 54.9 v 11.593 H 17.406 c -2.043,0 -5.757,1.384 -5.757,5.537 v 23.879 c 0,2.097 1.793,5.696 5.757,5.696 h 52.066 v 11.738 h -54.9 C 6.544,14.683 0,8.094 0,0" /></g><g
           transform="translate(420.7793,148.6061)"
           id="g252"><path
             id="path254"
             style="fill:#ed383a;fill-opacity:1;fill-rule:nonzero;stroke:none"
             d="M 0,0 C 0,-1.074 -0.145,-3.598 -3.267,-3.598 H -46.474 V 8.333 H -3.688 C -1.661,8.333 0,6.622 0,4.53 Z m -0.205,-23.297 c 0,-2.059 -1.656,-3.721 -3.693,-3.721 h -42.576 v 11.826 h 42.576 c 2.037,0 3.693,-1.661 3.693,-3.714 z M 11.46,5.15 c 0,8.094 -6.527,14.683 -14.549,14.683 H -58 v -58.411 h 54.911 c 8.022,0 14.549,6.578 14.549,14.661 v 5.647 c 0,3.339 -1.129,6.545 -3.178,9.146 1.849,1.938 3.178,3.355 3.178,6.932 z" /></g><g
           transform="translate(207.3501,90.6671)"
           id="g256"><path
             id="path258"
             style="fill:#2b5aa3;fill-opacity:1;fill-rule:nonzero;stroke:none"
             d="m 0,0 -3.732,7.448 h -2.99 V -4.136 h 2.387 v 7.552 l 3.814,-7.552 H 2.397 V 7.448 H 0 Z" /></g><g
           transform="translate(217.1108,91.2159)"
           id="g260"><path
             id="path262"
             style="fill:#2b5aa3;fill-opacity:1;fill-rule:nonzero;stroke:none"
             d="M 0,0 1.146,3.532 2.331,0 Z M -0.145,6.898 -4.158,-4.685 h 2.613 l 0.863,2.538 H 3.073 L 3.914,-4.685 H 6.727 L 2.519,6.898 Z" /></g><g
           transform="translate(225.9414,95.9659)"
           id="g264"><path
             id="path266"
             style="fill:#2b5aa3;fill-opacity:1;fill-rule:nonzero;stroke:none"
             d="M 0,0 H 3.034 V -9.435 H 5.608 V 0 H 8.659 V 2.148 H 0 Z" /></g><path
           id="path268"
           style="fill:#2b5aa3;fill-opacity:1;fill-rule:nonzero;stroke:none"
           d="m 238.143,86.531 h 2.587 v 11.583 h -2.587 z" /><g
           transform="translate(251.2534,94.4376)"
           id="g270"><path
             id="path272"
             style="fill:#2b5aa3;fill-opacity:1;fill-rule:nonzero;stroke:none"
             d="m 0,0 v -3.652 c 0,-1.003 -0.166,-1.507 -0.298,-1.751 -0.139,-0.255 -0.444,-0.599 -1.319,-0.599 -0.907,0 -1.207,0.327 -1.35,0.582 -0.133,0.223 -0.287,0.713 -0.287,1.699 v 3.665 c 0,1.607 0.823,1.839 1.627,1.839 0.553,0 0.964,-0.154 1.239,-0.476 C -0.143,1.013 0,0.576 0,0 M -1.617,3.898 C -2.979,3.898 -4.036,3.544 -4.761,2.813 -5.463,2.116 -5.83,1.13 -5.83,-0.076 v -3.5 c 0,-1.44 0.262,-2.491 0.848,-3.228 0.697,-0.881 1.837,-1.323 3.377,-1.323 1.517,0 2.641,0.453 3.344,1.352 0.559,0.741 0.835,1.783 0.835,3.199 v 3.52 c 0,1.208 -0.36,2.184 -1.085,2.892 -0.736,0.708 -1.782,1.062 -3.106,1.062" /></g><g
           transform="translate(265.1943,90.6671)"
           id="g274"><path
             id="path276"
             style="fill:#2b5aa3;fill-opacity:1;fill-rule:nonzero;stroke:none"
             d="m 0,0 -3.742,7.448 h -2.98 V -4.136 h 2.376 v 7.552 l 3.821,-7.552 H 2.396 V 7.448 H 0 Z" /></g><g
           transform="translate(274.9551,91.2159)"
           id="g278"><path
             id="path280"
             style="fill:#2b5aa3;fill-opacity:1;fill-rule:nonzero;stroke:none"
             d="M 0,0 1.146,3.532 2.319,0 Z M -0.15,6.898 -4.158,-4.685 h 2.608 l 0.859,2.538 H 3.051 L 3.898,-4.685 H 6.705 L 2.514,6.898 Z" /></g><g
           transform="translate(287.417,98.1144)"
           id="g282"><path
             id="path284"
             style="fill:#2b5aa3;fill-opacity:1;fill-rule:nonzero;stroke:none"
             d="m 0,0 h -2.591 v -11.583 h 6.888 v 2.154 H 0 Z" /></g><g
           transform="translate(307.8252,90.131)"
           id="g286"><path
             id="path288"
             style="fill:#2b5aa3;fill-opacity:1;fill-rule:nonzero;stroke:none"
             d="m 0,0 c 0,-0.509 -0.11,-0.919 -0.328,-1.229 -0.21,-0.321 -0.535,-0.466 -0.989,-0.466 -0.875,0 -1.153,0.322 -1.285,0.576 -0.133,0.222 -0.289,0.709 -0.289,1.683 v 3.08 c 0,1.041 0.156,1.539 0.278,1.793 0.143,0.266 0.43,0.653 1.296,0.653 0.852,0 1.195,-0.32 1.195,-1.141 V 4.13 h 2.591 v 1.13 c 0,1.35 -0.653,2.944 -3.703,2.944 -1.933,0 -4.226,-0.73 -4.226,-4.285 V 0.764 c 0,-1.451 0.256,-2.503 0.788,-3.222 0.651,-0.903 1.775,-1.372 3.343,-1.372 2.552,0 3.897,1.332 3.897,3.83 V 0.465 L 0,0.465 Z" /></g><path
           id="path290"
           style="fill:#2b5aa3;fill-opacity:1;fill-rule:nonzero;stroke:none"
           d="m 314.562,86.531 h 2.585 v 11.583 h -2.585 z" /><g
           transform="translate(320.6855,95.9659)"
           id="g292"><path
             id="path294"
             style="fill:#2b5aa3;fill-opacity:1;fill-rule:nonzero;stroke:none"
             d="m 0,0 h 3.039 v -9.435 h 2.58 V 0 H 8.664 V 2.148 H 0 Z" /></g><path
           id="path296"
           style="fill:#2b5aa3;fill-opacity:1;fill-rule:nonzero;stroke:none"
           d="m 332.895,86.531 h 2.584 v 11.583 h -2.584 z" /><g
           transform="translate(347.415,96.1105)"
           id="g298"><path
             id="path300"
             style="fill:#2b5aa3;fill-opacity:1;fill-rule:nonzero;stroke:none"
             d="m 0,0 v 2.005 h -8.088 v -2.15 h 5.056 l -5.256,-7.263 v -2.171 h 8.404 v 2.154 H -5.37 Z" /></g><g
           transform="translate(352.9902,91.3497)"
           id="g302"><path
             id="path304"
             style="fill:#2b5aa3;fill-opacity:1;fill-rule:nonzero;stroke:none"
             d="M 0,0 H 4.23 V 2.146 H 0 V 4.551 H 4.574 V 6.709 H -2.59 V -4.884 h 7.263 v 2.149 l -4.673,0 z" /></g><g
           transform="translate(369.4561,90.6671)"
           id="g306"><path
             id="path308"
             style="fill:#2b5aa3;fill-opacity:1;fill-rule:nonzero;stroke:none"
             d="M 0,0 -3.737,7.448 H -6.731 V -4.136 h 2.391 v 7.552 l 3.81,-7.552 H 2.398 V 7.448 H 0 Z" /></g><g
           transform="translate(389.2207,92.5782)"
           id="g310"><path
             id="path312"
             style="fill:#2b5aa3;fill-opacity:1;fill-rule:nonzero;stroke:none"
             d="M 0,0 C 0.019,0 0.033,0.005 0.051,0.005 V -0.006 C 0.033,0 0.019,0 0,0 M 0.3,2.247 C 0.3,1.428 -0.055,1.073 -0.918,1.073 h -1.649 v 2.314 h 1.592 c 0.422,0 0.743,-0.104 0.953,-0.298 C 0.199,2.895 0.3,2.618 0.3,2.247 m -2.867,-3.321 h 1.161 c 1.872,0 2.092,-0.787 2.092,-1.485 0,-0.409 -0.137,-0.73 -0.43,-0.962 -0.311,-0.256 -0.704,-0.372 -1.18,-0.372 H -2.567 Z M 1.767,0.1 C 2.52,0.598 2.88,1.406 2.88,2.491 2.88,3.467 2.547,4.218 1.828,4.754 1.152,5.281 0.3,5.537 -0.708,5.537 H -5.159 V -6.068 h 4.551 c 2.535,0 3.864,1.217 3.864,3.476 0,1.29 -0.498,2.204 -1.489,2.692" /></g><g
           transform="translate(399.6064,91.2159)"
           id="g314"><path
             id="path316"
             style="fill:#2b5aa3;fill-opacity:1;fill-rule:nonzero;stroke:none"
             d="M 0,0 1.152,3.532 2.332,0 Z m -0.143,6.898 -4.02,-11.583 h 2.613 l 0.861,2.538 H 3.058 L 3.904,-4.685 H 6.722 L 2.525,6.898 Z" /></g><g
           transform="translate(416.2998,90.6671)"
           id="g318"><path
             id="path320"
             style="fill:#2b5aa3;fill-opacity:1;fill-rule:nonzero;stroke:none"
             d="M 0,0 -3.742,7.448 H -6.738 V -4.136 h 2.391 v 7.552 l 3.809,-7.552 H 2.398 V 7.448 H 0 Z" /></g><g
           transform="translate(427.4443,92.7882)"
           id="g322"><path
             id="path324"
             style="fill:#2b5aa3;fill-opacity:1;fill-rule:nonzero;stroke:none"
             d="M 0,0 4.718,5.327 H 1.651 L -1.716,1.483 V 5.327 H -4.285 V -6.258 h 2.569 v 4.519 l 3.355,-4.519 h 3.234 z" /></g></g></g></g></svg>