<?xml version="1.0" encoding="utf-8"?>
<!-- Generator: Adobe Illustrator 24.2.0, SVG Export Plug-In . SVG Version: 6.00 Build 0)  -->
<svg version="1.1" id="Layer_1" xmlns="http://www.w3.org/2000/svg" xmlns:xlink="http://www.w3.org/1999/xlink" x="0px" y="0px"
	 viewBox="0 0 1416 229" enable-background="new 0 0 1416 229" xml:space="preserve">
<g>
	<path fill="#0C4DA2" d="M101.86,12.68c19.69-2.62,40.33-3.12,59.3,3.62c10.45,3.8,20.52,10.01,26.6,19.57
		c7.33,11.2,9.13,25,8.8,38.12c-19.69,0.02-39.39-0.01-59.08,0.02c-0.05-4.25-0.91-8.86-4.25-11.81c-4.91-4.43-11.9-5.17-18.23-5.33
		c-6,0-12.54,0.45-17.48,4.24c-4.61,3.54-5.54,10.99-1.69,15.42c3.76,4.49,9.6,6.3,14.9,8.27c16.88,5.35,34.72,8.14,50.59,16.36
		c10.22,5.12,20.2,12.41,24.68,23.32c4.1,9.09,3.27,19.28,2.24,28.91c-3.2,17.94-12.26,35.33-27.16,46.23
		c-19.68,14.15-44.08,20.66-68.12,21.2c-16.98,0.53-34.64-2-49.45-10.81c-11.01-6.69-20.72-16.35-25.35-28.56
		c-3.28-8.73-4.32-18.33-2.92-27.55c19.92-0.05,39.84-0.01,59.76-0.02c0.1,5.6,2.13,11.41,6.71,14.91
		c9.33,7.36,22.34,7.6,33.36,4.54c6.57-1.77,13.05-7.46,12.47-14.8c0.14-5.12-3.89-9.41-8.43-11.17
		c-8.02-3.19-16.23-5.87-24.51-8.31c-16.61-4.35-33.41-9.68-47.53-19.75c-11.73-8.41-16.7-23.96-14.55-37.9
		c0.53-3.57,0.59-7.19,1.09-10.76c2.64-13.81,9.93-26.73,20.57-35.96C67.55,22.99,84.44,15.71,101.86,12.68z"/>
	<g>
		<path fill="#0C4DA2" d="M862.12,37.87c14.8,0.02,29.6-0.01,44.4,0.02c-4.69,25.96-9.36,51.94-14.07,77.9
			c5.42-4.37,11.21-8.49,17.69-11.13c8.27-2.47,17.18-3.03,25.68-1.53c13.91,2.71,25.76,14.1,28.82,27.97
			c5.37,25.59-4.58,53.66-24.67,70.35c-12.82,10.53-30.63,14.22-46.74,10.85c-8.88-1.81-16.5-8.2-19.69-16.69
			c-1.04,4.89-2.09,9.79-3.23,14.66c-13.23-0.07-26.45,0.02-39.68-0.04C841.14,152.78,851.61,95.32,862.12,37.87z M900.44,135.1
			c-4.23,1.03-8.05,3.78-10.13,7.64c-3.26,5.8-5.15,12.24-6.75,18.66c-1.51,5.18-0.79,10.98,1.8,15.7
			c2.66,4.78,8.55,6.58,13.72,6.03c5.54-0.26,10.64-3.32,14.04-7.63c6.6-8.35,9.64-19.59,7.66-30.1c-0.71-3.76-2.69-7.55-6.17-9.41
			C910.28,133.66,905.07,134.04,900.44,135.1z"/>
	</g>
	<path fill="#0C4DA2" d="M1257.92,210.25c10.55-57.42,21.11-114.84,31.7-172.25c14.72,0.01,29.44,0,44.16,0.01
		c-5.8,31.55-11.68,63.1-17.47,94.66c11.42-10.56,22.79-21.17,34.16-31.78c17.21-0.03,34.42,0,51.63-0.01
		c-16.17,13.55-32.37,27.06-48.54,40.61c11.25,22.89,22.51,45.79,33.75,68.69c-17.63,0.01-35.26,0.01-52.89,0
		c-5.48-13.81-10.96-27.61-16.45-41.41c-3.18,2.68-6.35,5.36-9.5,8.07c-2.13,11.14-4.27,22.27-6.42,33.41
		C1287.34,210.25,1272.63,210.25,1257.92,210.25z"/>
	<g>
		<path fill="#0C4DA2" d="M253.89,103.72c13.63-1.8,27.48-1.77,41.18-0.75c9.78,1.05,20.92,2.88,27.31,11.2
			c6.08,7.81,4.85,18.32,3.4,27.45c-3.45,19.03-7.21,38.01-10.68,57.04c-0.95,3.9,2.2,6.95,4.32,9.8c-0.09,0.43-0.27,1.29-0.36,1.72
			c-15.14,0.17-30.28,0.01-45.42,0.07c-0.01-3.82-0.02-7.64,0-11.45c-12.17,9.29-27.24,14.73-42.6,14.7
			c-10.86,0.57-21.99-2.71-30.43-9.65c-5.51-4.74-6.62-12.53-5.95-19.39c1.27-8.79,4.97-17.55,11.8-23.46
			c5.74-4.86,12.77-7.96,19.97-9.94c14.31-3.22,28.97-4.45,43.4-7.03c4.15-0.79,8.69-1.81,11.63-5.1c2.53-2.73,2-7.71-1.31-9.6
			c-4.28-2.42-9.5-2.32-14.24-1.75c-5.79,0.7-11.14,4.4-13.21,9.96c-14.2,0.04-28.39,0.02-42.59,0.01
			c1.47-7.6,5.04-14.88,10.8-20.13C229.88,109.12,242.06,105.52,253.89,103.72z M259.07,168.35c-4.08,0.53-7.79,2.39-11.6,3.83
			c-4.22,1.44-6.56,6.15-6.47,10.4c0.05,3.08,2.46,5.61,5.34,6.38c7.33,2.06,15.74,0.4,21.43-4.76c5.9-5.1,8.45-12.9,9.83-20.34
			C271.58,165.92,265.41,167.66,259.07,168.35z"/>
	</g>
	<path fill="#0C4DA2" d="M369.81,115.22c15.27-10.93,34.8-13.66,53.15-12.73c13.31,0.77,27.58,4.03,37.29,13.79
		c7.52,7.51,9.72,18.7,8.5,28.97c-14.85,0.01-29.69-0.02-44.54,0.01c0.4-4.1-0.25-8.63-3.4-11.58c-3.71-4.01-9.74-4.1-14.74-3.17
		c-5.89,0.98-11.11,4.95-13.66,10.34c-3.82,8.05-5.7,16.87-7,25.63c-0.68,5.92,0.87,13,6.3,16.3c4.99,2.86,11.34,2.96,16.68,1.02
		c6.21-2.41,10.05-8.34,12.54-14.23c14.64-0.02,29.27,0.01,43.91-0.01c-3.5,13.45-12.44,25.35-24.52,32.26
		c-17.46,10.35-38.64,12.81-58.51,10.3c-12.56-1.62-25.28-7.02-32.89-17.54c-4.45-5.78-7.2-12.82-7.89-20.08
		c-0.73-4.74,0.83-9.37,1.18-14.06C344.84,142.48,355.21,125.91,369.81,115.22z"/>
	<g>
		<path fill="#0C4DA2" d="M548.17,102.7c17.96-1.66,37.35,1.33,51.8,12.81c10.25,8.26,13.6,22.46,11.87,35.05
			c-1.02,18.98-10.58,37.55-26.24,48.52c-11.76,7.85-25.48,12.61-39.52,14.08c-16.68,1.36-34.57-1.21-48.33-11.36
			c-7.87-5.64-12.97-14.69-14.18-24.25c-1.16-6.37,0.26-12.76,0.85-19.1c2.57-14.16,9.09-27.96,19.97-37.61
			C516.48,110.2,532.23,104.23,548.17,102.7z M546.37,131.1c-5.54,1.71-10.05,6.13-12.17,11.49c-3.21,8-5.32,16.45-6.38,25
			c-0.23,5.9,1.45,12.96,7.16,15.87c8.53,3.85,19.8,0.91,24.91-7.09c5.83-9.06,8.33-20.1,7.61-30.8c-0.38-4.7-1.61-9.86-5.45-12.96
			C557.62,129.17,551.46,129.69,546.37,131.1z"/>
	</g>
	<path fill="#0C4DA2" d="M675.53,120.4c8.63-8.95,20.04-15.58,32.36-17.66c9.06-1.01,18.76-0.4,26.98,3.9
		c5.8,3.03,9.85,8.61,11.83,14.76c9.69-10.35,22.87-17.82,37.19-18.85c9.35-0.58,19.27-0.14,27.75,4.25
		c6.27,3.24,10.33,9.7,11.55,16.55c2.31,12.39-0.56,24.87-2.84,37.03c-3.08,16.62-6.15,33.25-9.24,49.87c-14.73,0-29.46,0-44.19,0
		c2.72-14.86,5.49-29.7,8.23-44.55c1.11-6.72,2.87-13.39,2.9-20.24c0.05-3.77-1.51-8.19-5.48-9.37c-6.26-1.85-13.59-0.95-18.73,3.24
		c-4.07,4.02-5.54,9.82-6.78,15.22c-3.49,18.55-6.86,37.13-10.31,55.7c-14.73-0.01-29.46,0.01-44.19-0.01
		c2.47-13.26,4.93-26.52,7.4-39.78c1.53-8.57,3.64-17.13,3.44-25.89c-0.2-3.41-2-6.95-5.3-8.28c-6.18-2.41-13.74-0.81-18.42,3.9
		c-4.07,4.45-5.87,10.45-7.32,16.18c-3.39,17.94-6.63,35.91-9.95,53.87c-14.66,0.01-29.32,0.01-43.98,0
		c6.45-35.11,12.92-70.23,19.36-105.34c13.47-0.05,26.95-0.01,40.43-0.02C677.34,110.06,676.47,115.23,675.53,120.4z"/>
	<g>
		<path fill="#0C4DA2" d="M1003.71,113.23c12.81-8.18,28.41-10.28,43.31-10.79c12.78-0.23,25.81-0.52,38.28,2.76
			c7.06,1.85,13.99,6.09,17.1,12.94c3.53,7.6,2.08,16.21,0.97,24.18c-3.46,18.75-7.14,37.46-10.57,56.21
			c-1.03,3.93,2.14,7.05,4.28,9.92c-0.09,0.43-0.26,1.29-0.35,1.71c-15.24,0.21-30.48,0.02-45.72,0.09c-0.02-3.8-0.03-7.6,0-11.41
			c-14.27,11.35-33.11,16.2-51.13,14.28c-7.79-0.98-15.33-4.14-21.42-9.1c-6.83-5.88-7.42-16.1-5.25-24.27
			c2.18-9.31,7.89-17.93,16.34-22.64c10.3-6.5,22.62-7.76,34.38-9.55c8.67-1.38,17.44-2.23,26.04-4.07c3.63-0.79,7.47-2.24,9.69-5.4
			c2.04-2.9,0.95-7.36-2.24-8.94c-4.44-2.28-9.71-2.17-14.52-1.47c-5.43,0.83-10.52,4.4-12.34,9.72
			c-14.27,0.37-28.55,0.07-42.81,0.15C989.38,127.66,995.2,118.58,1003.71,113.23z M1037.03,168.3c-4.56,0.58-8.77,2.54-12.94,4.35
			c-5.63,2.57-7.99,12.39-1.77,15.61c8.56,3.66,19.17,0.72,25.26-6.17c4.41-5.1,6.45-11.73,7.68-18.24
			C1049.34,165.89,1043.26,167.56,1037.03,168.3z"/>
	</g>
	<path fill="#0C4DA2" d="M1170.39,121.59c9.6-10.15,22.37-17.96,36.54-19.05c10.85-0.76,22.74,0.47,31.55,7.42
		c6.71,5.37,8.99,14.34,9.16,22.58c0.45,8.39-1.7,16.57-3.15,24.76c-3.32,17.65-6.64,35.29-9.95,52.94
		c-14.65,0.01-29.3,0.02-43.95,0c2.55-13.74,5.11-27.47,7.66-41.2c1.32-8.48,4.18-17.03,2.56-25.68c-0.73-4.25-4.49-7.5-8.73-7.91
		c-6.25-0.79-13.59,0.18-17.84,5.31c-3.67,4.66-5.19,10.57-6.49,16.24c-3.3,17.75-6.51,35.51-9.82,53.25
		c-14.81-0.02-29.62,0.02-44.43-0.01c6.54-35.12,13.04-70.25,19.59-105.37c13.49,0.02,26.97-0.01,40.46,0.02
		C1172.49,110.46,1171.43,116.02,1170.39,121.59z"/>
</g>
</svg>
