<?xml version="1.0" encoding="utf-8"?>
<!-- Generator: Adobe Illustrator 24.2.0, SVG Export Plug-In . SVG Version: 6.00 Build 0)  -->
<svg version="1.1" id="Layer_1" xmlns="http://www.w3.org/2000/svg" xmlns:xlink="http://www.w3.org/1999/xlink" x="0px" y="0px"
	 viewBox="0 0 889.8 455.7" style="enable-background:new 0 0 889.8 455.7;" xml:space="preserve">
<style type="text/css">
	.st0{fill:#E60100;}
	.st1{fill:#010101;}
</style>
<g>
	<g>
		<path class="st0" d="M357.8,0.6c6.2-0.9,12.4-0.6,18.6-0.6c49.7,0,99.3-0.1,149,0c16.5-0.3,32.3,10.4,38.4,25.7
			c4.2,9.1,3,19.4,3,29.1c-0.5,27,0.1,54-0.1,81.1c-0.1,22.4,0.1,44.7,0.2,67.1c0,16.9-11.6,32.9-27.6,38.3
			c-4.8,1.7-9.8,2.3-14.9,2.2c-46.7,0.1-93.4,0-140,0c-7.7,0-15.4,0.1-23.1-0.1c-15.3-0.8-29.2-11.4-34.9-25.5
			c-2.3-5.3-3-11.1-2.9-16.9c0.1-50.3,0-100.6,0-150.9c0.1-6.8-0.5-13.7,1.6-20.3C329.2,14.8,342.6,3.1,357.8,0.6z M435.4,11
			c-32.7,2.5-63.7,20.7-82,47.8c-20.2,29-25.1,67.8-12.9,100.9c10.9,30.8,36.2,55.9,67,66.7c21.6,7.8,45.7,8.5,67.9,2.4
			c34.1-9.3,62.7-36.1,74.5-69.4c7.4-20.6,8.5-43.5,3.2-64.7c-7.4-30.4-28.4-57.1-56.1-71.4C478.2,13.3,456.5,9.3,435.4,11z"/>
	</g>
	<path class="st0" d="M371.1,59.8c16.4-19.6,40.8-32.5,66.4-34.3c-1.8,20.3-9.6,40.1-22.9,55.6c-16.3,19.4-40.9,30.8-66,33.1
		C350.4,94.4,358.1,75,371.1,59.8z"/>
	<path class="st0" d="M452.9,25.4c34.4,2.5,66.2,25.2,80.2,56.6c4.6,10.1,7.4,21.1,8.3,32.2c-18.1-1.8-36.1-7.8-50.7-18.9
		C468.7,79.1,454.8,52.6,452.9,25.4z"/>
	<path class="st0" d="M445,57.5c5.5,13.9,13.3,27.2,23.9,37.9c11.2,11.8,25.3,20.6,40.4,26.4c-17.6,6.7-33.7,17.7-45.7,32.3
		c-8,9.4-13.9,20.5-18.6,31.9c-10.4-29.4-34.6-53.2-63.8-64.1c2.7-1.6,5.6-2.6,8.4-3.8C415.1,106.3,435.5,84,445,57.5z"/>
	<path class="st0" d="M348.6,129.4c20.1,1.8,39.9,9.5,55.4,22.6c19.3,16.4,31.5,40.8,33.3,66.1c-20.2-1.6-39.8-9.8-55.1-23
		C363,178.7,350.7,154.6,348.6,129.4z"/>
	<path class="st0" d="M475.4,162.9c16.3-19.6,41-31.3,66.2-33.4c-1.7,19.3-9.1,38.2-21.5,53.2c-16.3,20.4-41.2,33.4-67.2,35.5
		C454.5,198.1,462.2,178.3,475.4,162.9z"/>
</g>
<g>
	<path class="st1" d="M767,299.9c13.8-0.8,27.5-1.4,41.3-2.4c0.8,0.8,1.7,1.6,2.5,2.4c-0.1,33.3-0.2,66.5,0,99.8
		c9.6-9,19.8-17.5,29.2-26.8c1.9-2.1,4.5-4,5.2-6.8c-3.4-3.5-9.1-3-13.5-4c0-3,0.1-6,0-8.9c16.6-0.3,33.2-0.1,49.9-0.2
		c0,2.9-0.1,5.8-0.1,8.7c-11.4,3.1-22.5,8.3-31.3,16.3c-5,4.5-9.9,9.2-15.3,13.3c13.3,14.9,25.1,31.1,38.2,46.1
		c4.1,4.9,10.7,5.6,16.7,6c0,3.1,0,6.1-0.1,9.2c-11.5-0.1-22.9,0.1-34.4-0.1c-12.3-15.9-24-32.3-37.3-47.4c-2.4,2.1-4.8,4.2-7.3,6.2
		c0.1,7.3-0.1,14.6,0.1,21.9c0,2.9,1,6.3,3.9,7.6c3.9,1.8,8.2,2.4,12.5,2.7c0,3.1,0,6.1,0,9.2c-18.3,0-36.7,0.1-55,0
		c0-3.1,0.1-6.2,0.2-9.2c3.9-0.4,7.9-0.4,11.6-1.7c2.9-1.2,3.9-4.6,3.7-7.5c0-37.3,0-74.6,0-112c0.1-4.9-3.1-10-7.9-11.4
		c-4.2-1.1-8.6-1.2-12.9-1.4C767,306,767,302.9,767,299.9z"/>
	<path class="st1" d="M17.8,319.4c10.8-9.3,25.5-12.9,39.5-11.8c10.2,0.6,19.8,4.5,28.8,9.2c1.3-2.1,2.6-4.1,3.9-6.2
		c3.7,0,11,0,11,0l0.8,49.2c0,0-7.5,0.1-11.3,0c-3.8-11.8-7.5-24.6-17.3-33.1c-7.7-6.9-18.6-8.9-28.5-7.1
		c-7.4,1.6-14.4,6.7-16.6,14.1c-1.7,7.2,0.3,15.3,5.7,20.5c5.9,6,14.1,8.5,21.7,11.5c14.3,5.2,29.7,9.3,41.5,19.4
		c7.4,6.4,11.4,16.1,11.2,25.8c0.5,10.8-3.8,21.8-11.8,29.2c-10.8,10.7-26.2,15.6-41.2,15.6c-13.4,0.2-26.5-3.7-38.6-9.2
		c-1.4,2.1-2.4,4.6-4.2,6.4c-3.6,0.2-7.3,0-10.9,0c-0.5-16.9-0.9-33.7-1.6-50.6c3.8,0,7.6-0.1,11.4-0.1
		c3.9,13.5,10.5,27.2,22.5,35.3c9.8,6.9,22.7,8.2,34.1,5.4c4.7-1.3,9.5-3.7,12.2-7.9c6-9,4.9-21.8-2.3-29.8
		c-6-7.4-15.7-9.6-24.2-12.8c-13.7-4.9-28.9-8.7-39.4-19.4c-7.4-6.8-10.2-17.2-9.9-27C4.6,335.6,10,325.9,17.8,319.4z"/>
	<g>
		<path class="st1" d="M293.9,311c3.6-0.2,7.2-0.1,10.8-0.1c16.4,39.3,33.3,78.4,49.9,117.7c1.6,4.1,4.1,7.9,7.9,10.3
			c4.4,2.9,9.7,3.6,14.8,4c0,3.3,0,6.5-0.1,9.8c-21.8,0-43.6-0.1-65.5,0.1c0-3.3,0.1-6.5,0.1-9.8c6.1-0.7,12.5-1,18.2-3.4
			c1.8-0.6,0.6-2.7,0.4-3.9c-4.8-12.5-10.3-24.7-15.2-37.1c-15,0.2-30.1,0-45.1,0.1c-4.4,10.5-8.9,20.9-12,31.8
			c-0.5,2.5-1.9,6.1,0.8,7.9c6,3.6,13.4,3.9,20.2,4.6c0,3.2,0,6.5-0.1,9.7c-19.9,0-39.8-0.1-59.7,0c0-3.2,0-6.4,0-9.7
			c5.6-0.9,11.6-1.5,16.3-4.9c4.4-2.7,7-7.4,9-12C261.3,387.9,277.7,349.5,293.9,311z M274.9,387.6c11.9,0,23.8,0,35.6,0
			c-6.1-13.9-12-27.8-18-41.7C286.6,359.8,280.8,373.7,274.9,387.6z"/>
	</g>
	<g>
		<path class="st1" d="M387.4,310.6c22.3,0,44.6-0.1,66.9,0c12.4-0.1,25.3,2.6,35.5,9.9c8,5.5,13.7,14.6,14.2,24.4
			c0.6,7.9-1.1,16.3-6.6,22.2c-6.1,6.6-14.1,11.3-22.6,14c12.4,1.8,24.9,7.6,32.7,17.6c5.7,7.1,6.7,16.9,4.5,25.5
			c-2,7.4-7.2,13.6-13.5,17.8c-6.9,4.7-15,7.5-23.3,9.1c-9.9,1.9-19.9,1.3-29.9,1.4c-19.4,0.1-38.7-0.1-58.1,0.1c0-3.3,0-6.7,0-10
			c5.5-0.7,11.1-0.7,16.3-2.6c3-1,4.3-4.3,4.1-7.3c0.1-33.6,0-67.3,0-100.9c-0.1-3-0.1-6.8-3.2-8.3c-5.4-2.6-11.6-2.3-17.4-2.8
			C387.2,317.4,387.2,314,387.4,310.6z M434.3,322.2c0,17.8,0,35.6,0,53.4c6.4-0.1,12.8,0.1,19.2-0.6c6.5-0.8,13.4-3.2,17.6-8.6
			c5.7-6.8,6.5-16.2,5.7-24.7c-0.8-7.8-5.6-15.4-13.2-18C454.1,320.6,444,322,434.3,322.2z M434.3,387.3c-0.1,13.2,0,26.4,0,39.6
			c0.1,3.2,0,7,2.6,9.4c4.5,3.9,10.8,4.3,16.4,4.5c8.3-0.1,17.1-1.7,23.5-7.3c6.5-5.9,8.5-15.2,8.2-23.7c-0.4-9.1-7.2-16.8-15.4-20
			C458.3,385.5,446,387.1,434.3,387.3z"/>
	</g>
	<path class="st1" d="M695.7,354.4c9.8-4.6,21.4-5.6,31.9-2.7c7.6,2.1,13.8,8,16.7,15.3c3.6,8.2,3,17.3,3,25.9c0,13.3-0.1,26.7,0,40
		c0,2.5,0.3,5.6,2.7,7.1c3.8,2.4,8.4,2.8,12.8,3.2c-0.1,3.1-0.1,6.1-0.2,9.2c-18.3,0-36.6,0-54.9,0c0-3.1,0-6.2,0-9.3
		c4-0.4,8.1-0.5,12-1.6c3.3-0.8,4.3-4.7,4.2-7.7c0-16.7,0.1-33.4,0-50.1c0.1-6.1-2.3-12.6-7.6-16.1c-4.7-3.6-11-3.2-16.5-2.1
		c-6.6,1.7-13.2,5-17.4,10.6c-0.8,1.1-2,2.3-1.8,3.8c0.1,17.3-0.1,34.7,0,52c0,2.8,0.4,5.9,2.9,7.6c3.9,2.8,9,3.1,13.6,3.6
		c0,3.1,0,6.2,0,9.3c-18.3-0.1-36.7,0-55-0.1c0-3.1,0-6.2,0.2-9.3c3.8-0.3,7.7-0.4,11.4-1.5c2.7-0.9,4.2-4,4-6.7c0-20,0-40,0-60
		c0.2-4.3-2.6-8.4-6.5-10c-3.3-1.4-6.8-1.5-10.3-1.8c0-3.1,0-6.2,0.1-9.2c12.5-0.8,25-1.5,37.5-2.4c0.7,0.8,1.5,1.5,2.2,2.3
		c0.1,3.8,0,7.7,0,11.5C685.4,361.2,690.1,357,695.7,354.4z"/>
	<g>
		<path class="st1" d="M132.3,372.9c7.7-12.5,21.4-21.1,36-22.4c11.5-1,23.7,0.5,33.6,6.9c7.8,4.8,12.9,13,15.2,21.7
			c1.7,6.1,1.8,12.4,1.6,18.7c-23.4,0.1-46.9-0.2-70.3,0.1c0.3,10,1,20.7,6.4,29.5c4.8,8.3,14,13.3,23.4,14c7.7,0.7,16-0.5,22.4-5.3
			c4.7-3.7,8.3-8.7,11.3-13.9c3.4,1.9,6.8,3.8,10.2,5.7c-7.4,14.2-21.7,24.8-37.7,26.9c-12.7,1.7-26.1-0.2-37.2-6.8
			c-9.3-5.3-16.2-14.3-19.7-24.4C121.8,407.2,122.7,387.9,132.3,372.9z M157.5,367c-5.9,5-8.1,12.7-9.2,20
			c15.5,0.1,31.1,0.1,46.6-0.1c-0.3-5.7-1.1-11.6-3.9-16.8c-2.6-5.1-7.9-8.8-13.7-9.2C170.3,360.2,162.6,361.8,157.5,367z"/>
	</g>
	<g>
		<path class="st1" d="M547.2,357.7c13.2-8,29.5-8.7,44.3-6c8.2,1.6,16.2,6.5,19.9,14.1c2.1,3.9,3,8.3,3.4,12.7
			c0.7,18.5-0.8,36.9-0.3,55.4c0,3.5,3,6.3,6.2,7.4c4,0.6,8,0.4,12,0.5c-0.1,3-0.1,5.9-0.2,8.9c-7.8,2.5-16,5.2-24.4,3.6
			c-7-0.8-13.6-5.7-15.4-12.6c-6.4,5.7-13.8,10.6-22.3,12.3c-7.6,1.5-15.6,1.9-23-0.5c-7.7-2.5-14.6-8.6-16.8-16.6
			c-2.6-9.7,0-21.2,7.9-27.8c6.8-5.8,15.5-8.3,23.9-10.9c9.8-3.1,19.8-5.7,29.3-9.7c-0.1-5.9,0.5-12-1.8-17.5
			c-2-4.5-5.9-8.4-10.7-9.8c-6.7-1.6-13.9-0.4-19.9,2.8c0.2,5.3,3.2,10.7,1.2,16c-2.9,6.3-10.9,8-17.2,6.7c-6.3-1.5-9.4-9-8.2-14.9
			C536.5,365.5,542,361,547.2,357.7z M564.7,410.3c-4.6,2.9-8.5,7.3-9.8,12.7c-0.9,4.7-0.7,10.1,2.5,13.9c3.7,4.1,9.7,5.3,15,4.6
			c7.5-0.7,14.1-5.1,19.1-10.5c0-10.4,0.3-20.8,0.6-31.3C582.6,402.3,573,404.9,564.7,410.3z"/>
	</g>
</g>
</svg>
