<?xml version="1.0" encoding="utf-8"?>
<!-- Generator: Adobe Illustrator 24.2.0, SVG Export Plug-In . SVG Version: 6.00 Build 0)  -->
<svg version="1.1" id="Layer_1" xmlns="http://www.w3.org/2000/svg" xmlns:xlink="http://www.w3.org/1999/xlink" x="0px" y="0px"
	 viewBox="0 0 801.5 120.8" style="enable-background:new 0 0 801.5 120.8;" xml:space="preserve">
<style type="text/css">
	.st0{fill:#0046FF;}
	.st1{fill:#FFFFFF;}
</style>
<path class="st0" d="M60.4,0C27.1,0,0,27.1,0,60.4s27.1,60.4,60.4,60.4s60.4-27.1,60.4-60.4S93.8,0,60.4,0C60.4,0,60.4,0,60.4,0z
	 M61.7,109.8c-7.2,1-19-0.8-27-5.9c-6-3.7-10.8-9.2-13.8-15.6c-2.8-5.7-4.1-12.7-1.1-12.3c1.4,0.2,2.6,2.8,5.2,6.2
	c1.8,2.3,3.5,4.3,4.7,4.5c0.6,0.1,1-0.1,1.4-0.9c0.8-1.4,1.8-4.2,3.6-6.4c1.4-1.7,3.3-2.5,4.3,1.6c0.5,2,0.8,4,1.1,6
	c0.3,2.6,0.5,4.2,1.4,4.6s2.3-0.1,4.7-1c1.7-0.6,3.9-1.4,6.7-2.2c2.6-0.7,4.2-0.3,2.5,3.6c-1.1,2.6-2.6,5.1-4.3,7.4
	c-0.5,0.6-0.4,1.5,0.2,2c1.6,1.3,3.4,2.3,5.3,3c1.8,0.8,3.6,1.4,5.5,1.9C64.4,107.1,64,109.4,61.7,109.8z M92.7,96.8
	c-2.2,3.7-7,7.6-12.7,10.3c-0.9,0.4-1.8,0.3-2-0.4s0.3-1.3,0.8-2c7.4-9.7,1.9-18.5-10.1-25.4c-8.9-5.1-14.5-8-21.1-11.9
	C28.4,56,24.7,46.2,24,40.4c-1.9-14.7,10.3-25.8,22.8-28.4c0.4-0.1,1.4-0.2,1.7,0.6s-0.4,1.4-0.8,1.7c-5.6,3.1-11.1,9.6-10.5,16.9
	c0.3,4.1,2.1,9.9,13.1,17.7c6.6,4.7,14.8,8.6,31.1,18.4C98.6,77.7,96.6,90.3,92.7,96.8L92.7,96.8z M95.4,41.5
	c-3.9,4.8-7.9,3-10.9-3.8c-1.9-4.3-4.4-5.3-6.2-4.2c-1.9,1.2-1.2,4.1,1,7.5c1.2,2,1,4.6-0.7,6.3c-1.8,1.7-4.4,2.3-6.8,1.6
	c-4.9-1.1-9.7-7.6-6.2-21.9c1.4-5.7-1.3-8.2-3.1-10.4c-0.9-1.1-1-1.8-0.7-2.2s1.2-0.5,2.6-0.2c1.9,0.4,4.7,1.4,6.9,1.7
	c1.7,0.2,3.3,0.3,5,0.2c4.2-0.3,8.3,0.5,12.1,2.4c6.2,3.1,6.8,8.4,3.4,8c-1.4-0.4-2.8-0.9-4-1.7c-0.8-0.4-1.6-0.5-2.1-0.2
	c-0.6,0.5-0.7,1.3-0.4,1.9c0.8,1.6,3.4,2.5,6.9,3.4C98.5,31.8,98.6,37.6,95.4,41.5z"/>
<path class="st1" d="M61.7,109.8c-7.2,1-19-0.8-27-5.9c-6-3.7-10.8-9.2-13.8-15.6c-2.8-5.7-4.1-12.7-1.1-12.3
	c1.4,0.2,2.6,2.8,5.2,6.2c1.8,2.3,3.5,4.3,4.7,4.5c0.6,0.1,1-0.1,1.4-0.9c0.8-1.4,1.8-4.2,3.6-6.4c1.4-1.7,3.3-2.5,4.3,1.6
	c0.5,2,0.8,4,1.1,6c0.3,2.6,0.5,4.2,1.4,4.6s2.3-0.1,4.7-1c1.7-0.6,3.9-1.4,6.7-2.2c2.6-0.7,4.2-0.3,2.5,3.6
	c-1.1,2.6-2.6,5.1-4.3,7.4c-0.5,0.6-0.4,1.5,0.2,2c1.6,1.3,3.4,2.3,5.3,3c1.8,0.8,3.6,1.4,5.5,1.9C64.4,107.1,64,109.4,61.7,109.8z
	 M92.7,96.8c-2.2,3.7-7,7.6-12.7,10.3c-0.9,0.4-1.8,0.3-2-0.4s0.3-1.3,0.8-2c7.4-9.7,1.9-18.5-10.1-25.4c-8.9-5.1-14.5-8-21.1-11.9
	C28.4,56,24.7,46.2,24,40.4c-1.9-14.7,10.3-25.8,22.8-28.4c0.4-0.1,1.4-0.2,1.7,0.6s-0.4,1.4-0.8,1.7c-5.6,3.1-11.1,9.6-10.5,16.9
	c0.3,4.1,2.1,9.9,13.1,17.7c6.6,4.7,14.8,8.6,31.1,18.4C98.6,77.7,96.6,90.3,92.7,96.8L92.7,96.8z M95.4,41.5
	c-3.9,4.8-7.9,3-10.9-3.8c-1.9-4.3-4.4-5.3-6.2-4.2c-1.9,1.2-1.2,4.1,1,7.5c1.2,2,1,4.6-0.7,6.3c-1.8,1.7-4.4,2.3-6.8,1.6
	c-4.9-1.1-9.7-7.6-6.2-21.9c1.4-5.7-1.3-8.2-3.1-10.4c-0.9-1.1-1-1.8-0.7-2.2s1.2-0.5,2.6-0.2c1.9,0.4,4.7,1.4,6.9,1.7
	c1.7,0.2,3.3,0.3,5,0.2c4.2-0.3,8.3,0.5,12.1,2.4c6.2,3.1,6.8,8.4,3.4,8c-1.4-0.4-2.8-0.9-4-1.7c-0.8-0.4-1.6-0.5-2.1-0.2
	c-0.6,0.5-0.7,1.3-0.4,1.9c0.8,1.6,3.4,2.5,6.9,3.4C98.5,31.8,98.6,37.6,95.4,41.5z"/>
<path class="st0" d="M147.1,81.7c1.5,1.2,3.1,2.3,4.8,3.1c1.8,0.9,3.6,1.7,5.5,2.3c1.8,0.6,3.7,1.1,5.6,1.4c1.7,0.3,3.4,0.5,5.1,0.5
	c3.9,0,6.9-0.8,9.1-2.4s3.3-4,3.3-7.3c0.1-2.2-0.5-4.4-1.8-6.3c-1.2-1.7-3.4-3.4-6.5-5c-1.8-0.9-3.6-1.8-5.2-2.6
	c-1.6-0.8-3.2-1.5-4.8-2.4s-3-1.7-4.4-2.6c-1.5-0.9-2.9-2-4.2-3.1c-2.4-2.1-4.5-4.7-6.1-7.5c-1.7-3.1-2.5-6.6-2.4-10.1
	c0-2.6,0.5-5.2,1.7-7.6c1.1-2.3,2.8-4.4,4.8-6c2.3-1.7,4.9-3.1,7.7-3.9c3.3-1,6.8-1.4,10.2-1.4c7.5-0.1,15,1.3,22,4.2V37
	c0.1,0.7-0.3,1.4-1,1.7c-0.7,0.2-1.5,0-2-0.5c-4.7-4.2-10.8-6.5-17.1-6.6c-3.4,0-6,0.7-7.9,2.2c-1.8,1.5-2.8,3.7-2.7,6.1
	c0,1.6,0.3,3.3,0.9,4.8c0.7,1.4,1.6,2.6,2.9,3.5c2.4,2,5,3.7,7.8,5.1c2.8,1.5,5.5,2.8,8.1,4.1c2.3,1,4.5,2.3,6.6,3.7
	c1.9,1.3,3.5,2.8,4.9,4.6c1.4,1.7,2.4,3.7,3.1,5.8c0.7,2.5,1.1,5.1,1,7.7c0.1,3.2-0.6,6.4-2.1,9.3c-1.4,2.6-3.5,4.8-5.9,6.4
	c-2.7,1.8-5.7,3-8.9,3.7c-3.6,0.8-7.2,1.2-10.9,1.2c-3,0-6-0.4-8.9-1c-2.8-0.6-5.6-1.4-8.2-2.4c-2.1-0.8-4-1.9-5.7-3.3
	c-1.4-1.2-1.8-2.4-1.3-3.6L147.1,81.7z"/>
<path class="st0" d="M204.7,22.2h16.3v26.6c2-1.7,4.3-3,6.8-4c2.6-1,5.5-1.6,8.3-1.5c2.8,0,5.5,0.4,8.1,1.2c2.3,0.7,4.4,1.9,6.3,3.5
	c1.7,1.5,3.1,3.3,4,5.4c1,2.2,1.5,4.6,1.4,7v38.3h-14.9V62.2c0-5.3-2.9-7.9-8.7-7.9c-2,0-3.9,0.4-5.7,1.2c-2,0.9-3.9,1.9-5.6,3.2
	v39.8H206V31.7c0-1.3-0.1-2.6-0.5-3.9c-0.4-1.1-1.1-2.2-1.9-3c-0.5-0.5-0.7-1.2-0.4-1.9C203.5,22.4,204.1,22.1,204.7,22.2z"/>
<path class="st0" d="M284,45v53.5h-15V54.4c0-1.3-0.1-2.5-0.5-3.7c-0.4-1.1-1.1-2.1-1.9-2.9c-0.5-0.5-0.7-1.2-0.5-1.9
	c0.2-0.6,0.8-0.9,1.4-0.9L284,45z M284.6,28.1c0.1,2.4-0.9,4.8-2.6,6.5c-3.7,3.4-9.3,3.4-13,0c-1.7-1.7-2.6-4.1-2.5-6.5
	c-0.1-2.4,0.8-4.8,2.5-6.5c3.7-3.4,9.3-3.4,13,0C283.7,23.3,284.6,25.6,284.6,28.1L284.6,28.1z"/>
<path class="st0" d="M296.1,45H312v5.2c2-1.9,4.2-3.6,6.6-5c2.7-1.5,5.7-2.2,8.7-2.1c2.7,0,5.4,0.4,7.9,1.2c2.3,0.7,4.5,1.9,6.3,3.5
	c1.8,1.5,3.3,3.5,4.2,5.7c1.1,2.4,1.6,5.1,1.5,7.8v37.2h-14.9V62.6c0-3-0.7-5.3-2-6.6s-3.6-2-6.6-2c-2,0-4,0.4-5.9,1.2
	c-1.9,0.9-3.7,2.1-5.3,3.5v39.8h-15V54.6c0-1.3-0.1-2.6-0.5-3.9c-0.4-1.1-1.1-2.1-1.9-2.9c-0.6-0.7-0.8-1.3-0.5-1.9
	C294.9,45.3,295.5,45,296.1,45z"/>
<path class="st0" d="M358.7,22.2H375v26.6c2-1.7,4.3-3,6.8-4c2.6-1,5.4-1.5,8.2-1.5c2.8,0,5.5,0.4,8.1,1.2c2.3,0.7,4.4,1.9,6.3,3.5
	c1.7,1.5,3.1,3.3,4,5.4c1,2.2,1.5,4.6,1.4,7v38.3h-14.9V62.2c0-5.3-2.9-7.9-8.7-7.9c-2,0-3.9,0.4-5.7,1.2c-2,0.9-3.8,1.9-5.6,3.2
	v39.8h-15V31.7c0-1.3-0.1-2.6-0.5-3.9c-0.4-1.1-1.1-2.1-1.9-3c-0.6-0.7-0.7-1.3-0.4-1.9C357.5,22.4,358.1,22.1,358.7,22.2z"/>
<path class="st0" d="M443.8,53.2c-3,0-5.9,0.5-8.7,1.6c-2.6,1-5.1,2.3-7.5,3.8c-1.1,0.7-1.9,0.9-2.5,0.6s-0.9-1-0.9-2.1v-9.9
	c3.2-1.4,6.5-2.3,10-2.9c3.5-0.6,7-1,10.5-1c7.4,0,13.1,1.4,17.2,4.3s6.1,7.3,6.1,13.2v37.8h-14.7v-5.8c-2,2.5-4.5,4.5-7.4,5.7
	c-2.9,1.2-6,1.8-9.1,1.8c-2.5,0-5-0.4-7.3-1.2c-4.2-1.5-7.6-4.7-9.3-8.8c-0.9-2.2-1.4-4.5-1.3-6.9c0-5.7,2-10.2,6-13.6
	c4-3.3,10.2-5,18.6-5h9.7v-4c0-2.7-0.8-4.6-2.4-5.8S446.8,53.2,443.8,53.2z M453,74.7h-9.7c-3.7,0-6.3,0.8-7.9,2.3
	c-1.6,1.6-2.4,3.8-2.3,6c-0.1,1.9,0.6,3.7,1.8,5.1c1.3,1.4,3.2,2.1,5.1,2c2.5,0,5-0.5,7.2-1.7c2.2-1.1,4.2-2.7,5.8-4.5V74.7z"/>
<path class="st0" d="M479,45h15.9v5.2c2-1.9,4.2-3.6,6.6-5c2.7-1.5,5.7-2.2,8.7-2.1c2.7,0,5.4,0.4,7.9,1.2c2.3,0.7,4.5,1.9,6.3,3.5
	c1.8,1.5,3.3,3.5,4.2,5.7c1.1,2.4,1.6,5.1,1.5,7.8v37.2h-14.9V62.6c0-3-0.7-5.3-2-6.6c-1.3-1.4-3.6-2-6.6-2c-2,0-4,0.4-5.9,1.2
	c-2,0.9-3.8,2.1-5.3,3.5v39.8h-15V54.6c0-1.3-0.1-2.6-0.5-3.9c-0.4-1.1-1.1-2.1-1.9-2.9c-0.6-0.7-0.8-1.3-0.5-1.9
	C477.7,45.3,478.4,44.9,479,45z"/>
<path class="st0" d="M562,24.3h26.2c3.6,0,7.1,0.4,10.6,1.3c2.9,0.7,5.6,2,8,3.7c2.1,1.5,3.9,3.6,5.1,5.9c1.2,2.4,1.9,5.1,1.8,7.8
	c0,7.2-2.8,12.5-8.4,15.9c3.6,1.3,6.8,3.6,9.1,6.6c2.2,2.9,3.3,6.9,3.3,11.8c0.1,3.2-0.6,6.4-2,9.2c-1.4,2.7-3.3,4.9-5.8,6.7
	c-2.7,1.9-5.8,3.2-9,4c-3.8,0.9-7.7,1.4-11.6,1.3h-25.9V33.9c0-1.3-0.1-2.6-0.5-3.9c-0.4-1.1-1.1-2.1-1.9-2.9
	c-0.5-0.5-0.7-1.2-0.5-1.9C560.8,24.5,561.4,24.2,562,24.3z M579,54.5h8.2c3.6,0,6.4-0.7,8.2-2.2s2.8-4,2.8-7.6c0-3.6-1-6.2-2.9-7.7
	s-4.8-2.2-8.5-2.2h-7.9L579,54.5z M601.7,76.4c0-4-1.1-6.9-3.3-8.7s-5.5-2.7-10-2.7H579v22.8h9.5c4.5,0,7.8-0.9,10-2.8
	S601.7,80.4,601.7,76.4z"/>
<path class="st0" d="M648.9,53.2c-3,0-5.9,0.5-8.7,1.6c-2.6,1-5.1,2.3-7.5,3.8c-1.1,0.7-1.9,0.9-2.5,0.6s-0.8-1-0.8-2.1v-9.9
	c3.2-1.4,6.5-2.3,9.9-2.9c3.5-0.6,7-1,10.5-1c7.4,0,13.2,1.4,17.2,4.3s6,7.3,6,13.2v37.8h-14.7v-5.8c-2,2.5-4.5,4.5-7.4,5.7
	c-2.9,1.2-6,1.8-9.1,1.8c-2.5,0-5-0.4-7.3-1.2c-2.1-0.8-4-1.9-5.7-3.5c-1.6-1.5-2.8-3.3-3.7-5.3c-0.9-2.2-1.4-4.5-1.3-6.9
	c0-5.7,2-10.2,6-13.6c4-3.3,10.2-5,18.6-5h9.6v-4c0-2.7-0.8-4.6-2.4-5.8S651.9,53.2,648.9,53.2z M658.1,74.7h-9.7
	c-3.7,0-6.3,0.8-7.9,2.3c-1.6,1.6-2.4,3.8-2.3,6c-0.1,1.9,0.5,3.7,1.8,5.1c1.3,1.4,3.2,2.1,5.1,1.9c2.5,0,5-0.5,7.2-1.7
	c2.2-1.1,4.2-2.6,5.8-4.5L658.1,74.7z"/>
<path class="st0" d="M684.1,45H700v5.2c2-1.9,4.2-3.6,6.6-5c2.7-1.5,5.7-2.2,8.7-2.1c2.7,0,5.4,0.4,7.9,1.2c2.3,0.7,4.5,1.9,6.3,3.5
	c1.8,1.5,3.3,3.5,4.2,5.7c1.1,2.4,1.6,5.1,1.5,7.8v37.2h-14.9V62.6c0-3-0.7-5.3-2-6.6s-3.6-2-6.6-2c-2,0-4,0.4-5.9,1.2
	c-1.9,0.9-3.7,2.1-5.3,3.5v39.8h-15V54.6c0-1.3-0.1-2.6-0.5-3.9c-0.4-1.1-1.1-2.1-1.9-2.9c-0.6-0.7-0.8-1.3-0.5-1.9
	C682.9,45.3,683.5,45,684.1,45z"/>
<path class="st0" d="M748,98.5V31.7c0-1.3-0.1-2.6-0.5-3.9c-0.4-1.1-1.1-2.1-1.9-3c-0.6-0.7-0.7-1.3-0.4-1.9
	c0.3-0.5,0.9-0.9,1.5-0.8H763v43.8L781.9,45H799l-20.5,22.8l22.9,30.7H785l-16.5-22.3c-0.6-0.9-1.3-1.7-2.1-2.3
	c-0.7-0.3-1.4-0.5-2.1-0.5h-1.3v25.1L748,98.5z"/>
</svg>
