<?xml version="1.0" encoding="utf-8"?>
<!-- Generator: Adobe Illustrator 24.2.0, SVG Export Plug-In . SVG Version: 6.00 Build 0)  -->
<svg version="1.1" id="Layer_1" xmlns="http://www.w3.org/2000/svg" xmlns:xlink="http://www.w3.org/1999/xlink" x="0px" y="0px"
	 viewBox="0 0 600 200" enable-background="new 0 0 600 200" xml:space="preserve">
<path id="XMLID_76_" fill-rule="evenodd" clip-rule="evenodd" fill="#ED1C24" d="M-276.003,30.993l-29.23,29.426l29.23,29.422
	l-29.23,29.239l-58.854-58.66l58.854-58.857L-276.003,30.993 M-187.912,60.419l-58.657-58.857l-29.434,29.431l29.434,29.426
	l-29.434,29.422l29.434,29.239L-187.912,60.419z"/>
<path id="XMLID_67_" fill-rule="evenodd" clip-rule="evenodd" fill="#ED1C24" d="M-322.13,159.903v11.573
	c-1.522-1.514-3.042-2.846-4.367-3.599c-1.52-0.761-3.042-1.141-4.754-1.141c-3.027,0-5.5,1.141-7.395,3.225
	c-1.901,2.092-2.853,4.747-2.853,8.163c0,3.225,0.951,5.699,2.853,7.783c1.894,2.092,4.367,3.227,7.395,3.227
	c1.712,0,3.234-0.381,4.754-1.135c1.325-0.768,2.846-2.092,4.367-3.612v11.586c-1.711,0.943-3.423,1.513-5.127,1.894
	c-1.712,0.38-3.416,0.57-5.128,0.57c-2.085,0-3.986-0.191-5.88-0.761c-1.712-0.38-3.425-1.324-4.938-2.274
	c-3.044-1.903-5.128-4.367-6.839-7.403c-1.514-3.044-2.275-6.269-2.275-10.064c0-3.044,0.57-5.698,1.514-8.164
	c0.95-2.472,2.472-4.747,4.366-6.648c1.903-1.894,3.986-3.416,6.269-4.36c2.473-0.95,4.938-1.331,7.783-1.331
	c1.712,0,3.416,0.191,5.128,0.57C-325.553,158.382-323.841,158.945-322.13,159.903 M-394.465,197.486v-39.103h10.636v15.185h14.235
	v-15.185h10.629v39.103h-10.629v-15.944h-14.235v15.944H-394.465z M-400.535,159.903v11.573c-1.523-1.514-2.854-2.846-4.367-3.599
	c-1.529-0.761-3.044-1.141-4.749-1.141c-3.035,0-5.508,1.141-7.409,3.225c-1.894,2.092-2.846,4.747-2.846,8.163
	c0,3.225,0.951,5.699,2.846,7.783c2.092,2.092,4.558,3.227,7.409,3.227c1.705,0,3.219-0.381,4.749-1.135
	c1.513-0.768,2.844-2.092,4.367-3.612v11.586c-1.712,0.943-3.425,1.513-5.13,1.894c-1.703,0.38-3.225,0.57-4.936,0.57
	c-2.283,0-4.177-0.191-6.078-0.761c-1.705-0.38-3.417-1.324-4.938-2.274c-2.84-1.903-5.121-4.367-6.641-7.403
	c-1.516-3.044-2.275-6.269-2.275-10.064c0-3.044,0.38-5.698,1.331-8.164c0.944-2.472,2.464-4.747,4.549-6.648
	c1.712-1.894,3.797-3.416,6.269-4.36c2.275-0.95,4.74-1.331,7.783-1.331c1.711,0,3.233,0.191,4.936,0.57
	C-403.959,158.382-402.247,158.945-400.535,159.903z M-459.96,197.486v-39.103h23.926v8.537h-13.48v6.839h12.713v8.353h-12.713
	v6.641h13.48v8.733H-459.96z M-296.879,157.431v9.107c-3.036,0-5.319,0.959-7.409,3.233c-1.896,2.085-2.847,4.938-2.847,8.164
	c0,3.414,0.951,6.071,2.847,8.352c1.901,2.086,4.373,3.227,7.409,3.227v8.924c-2.853,0-5.508-0.38-7.981-1.522
	c-2.655-0.943-4.93-2.464-6.832-4.367c-2.085-1.893-3.605-4.175-4.556-6.641c-1.135-2.472-1.514-5.127-1.514-7.972
	c0-2.847,0.38-5.317,1.514-7.783c0.952-2.472,2.472-4.747,4.556-6.65c1.902-1.894,4.177-3.414,6.832-4.556
	C-302.387,158.001-299.732,157.431-296.879,157.431z M-484.641,197.486v-29.989h-8.733v-9.114h28.095v9.114h-8.733v29.989H-484.641z
	 M-224.361,197.486h-9.875l-2.466-16.896c0-1.141-0.191-2.655-0.38-3.986c-0.192-1.516-0.192-3.036-0.381-4.749
	c-0.191,1.522-0.753,3.606-1.514,6.08c0,0.57-0.189,0.95-0.189,1.141l-5.319,18.41h-7.211l-5.317-18.41
	c0-0.191-0.191-0.57-0.381-1.141c-0.761-2.473-1.141-4.558-1.325-6.08c-0.189,1.522-0.387,2.853-0.387,4.369
	c-0.189,1.52-0.372,2.851-0.563,4.366l-2.281,16.896h-9.875l5.888-39.103h10.636l5.88,20.123c0,0.189,0.191,0.38,0.191,0.753
	c0.572,1.711,0.951,3.233,1.142,4.564c0-0.761,0.189-1.522,0.38-2.281c0.182-0.951,0.381-1.896,0.761-3.036l6.071-20.123h10.438
	L-224.361,197.486z M-296.879,198.437v-8.924c3.036,0,5.31-1.141,7.402-3.227c1.896-2.281,2.846-4.938,2.846-8.352
	c0-3.227-0.95-5.882-2.846-8.164c-2.092-2.274-4.556-3.233-7.402-3.233v-9.107c2.846,0,5.5,0.57,7.972,1.514
	c2.656,1.142,4.932,2.662,6.832,4.556c2.086,1.903,3.417,3.995,4.558,6.65c0.95,2.466,1.514,4.936,1.514,7.783
	c0,2.846-0.564,5.5-1.514,7.972c-0.951,2.466-2.472,4.748-4.558,6.641c-1.9,1.903-4.175,3.425-6.832,4.367
	C-291.379,198.058-294.034,198.437-296.879,198.437z"/>
<path id="XMLID_60_" fill-rule="evenodd" clip-rule="evenodd" fill="#231F20" d="M-208.796,173.947h2.283c0.759,0,1.331,0,2.091,0
	v7.022c-0.197,0-0.387,0-0.569,0h-3.804v8.544h3.614c0.191,0,0.563,0,0.759,0v7.972c-0.957,0-1.909,0-3.233,0h-11.008v-39.103
	h10.819c1.331,0,2.274,0,3.422,0v7.782c-0.569,0-1.331,0-2.091,0h-2.283V173.947 M-165.888,158.382v6.45c0-0.189,0-0.189,0-0.189
	c-0.38,0.95-0.57,1.894-0.761,2.853c-0.183,0.753-0.38,1.703-0.753,2.464l-3.803,12.91h5.317v7.594h-7.593l-2.092,7.021h-10.629
	l13.474-39.103H-165.888z M-204.423,173.947c1.324-0.189,2.466-0.38,3.036-0.761c0.944-0.569,1.514-1.711,1.514-3.035
	c0-1.522-0.38-2.472-1.331-3.233c-0.753-0.381-1.703-0.563-3.219-0.755v-7.782c2.466,0,4.36,0.182,5.691,0.38
	c1.712,0.374,3.227,0.753,4.556,1.514c1.325,0.761,2.466,1.901,3.227,3.225c0.761,1.331,1.141,2.854,1.141,4.558
	c0,2.283-0.569,4.177-1.711,5.317c-1.133,1.331-3.036,2.472-5.5,3.035c2.844,0.192,5.127,1.142,6.643,3.038
	c1.52,1.711,2.274,3.986,2.274,6.838c0,2.086-0.374,3.988-1.331,5.509c-0.753,1.703-2.085,2.846-3.79,3.796
	c-1.331,0.761-2.844,1.135-4.938,1.522c-1.324,0.183-3.414,0.372-6.261,0.372v-7.972c2.086,0,3.606-0.38,4.55-0.951
	c1.141-0.563,1.711-1.703,1.711-3.225c0-1.514-0.57-2.655-1.522-3.416c-0.95-0.572-2.464-0.951-4.74-0.951V173.947z
	 M-95.265,197.486v-39.103h10.446v17.841l12.523-17.841h12.34l-14.424,19.171l15.755,19.932H-71.91l-12.91-17.46v17.46H-95.265z
	 M-141.968,197.486v-39.103h10.255l14.805,20.123c0.189,0.38,0.759,1.324,1.33,2.464c0.761,1.331,1.514,2.655,2.277,4.367
	c-0.185-1.514-0.374-3.036-0.564-4.177c0-1.331-0.198-2.466-0.198-3.416v-19.362h10.255v39.103h-10.255l-14.804-20.123
	c-0.191-0.38-0.755-1.331-1.331-2.472c-0.762-1.324-1.325-2.838-2.086-4.36c0.192,1.522,0.381,3.036,0.381,4.36
	c0.191,1.141,0.191,2.283,0.191,3.233v19.362H-141.968z M-165.888,190.465v-7.594h5.317l-3.986-12.91
	c-0.189-0.38-0.38-0.95-0.578-1.901c-0.183-0.761-0.563-1.896-0.753-3.227v-6.45h6.648l13.482,39.103h-10.636l-2.083-7.021H-165.888
	z"/>
<path id="XMLID_23_" fill-rule="evenodd" clip-rule="evenodd" fill="#ED1C24" d="M-192.85,109.396c-2.655,0-4.93,2.091-4.93,4.746
	c0,2.847,2.275,4.938,4.93,4.938v-0.38c-2.464,0-4.558-1.896-4.558-4.558c0-2.464,2.094-4.366,4.558-4.366V109.396
	 M-193.794,111.678v2.275h0.57c0.185,0,0.185,0,0.374,0v1.331l-0.563-0.761h-0.381v3.036h-0.57v-6.452h1.141
	c0.185,0,0.185,0,0.374,0v0.57c-0.189,0-0.189,0-0.374,0H-193.794z M-192.85,115.284v-0.761l2.281,3.036h-0.759L-192.85,115.284z
	 M-192.85,119.08c2.662,0,4.938-2.091,4.938-4.938c0-2.655-2.275-4.746-4.938-4.746v0.38c2.473,0,4.556,1.901,4.556,4.366
	c0,2.662-2.083,4.558-4.556,4.558V119.08z M-192.85,113.953c0.38,0,0.57-0.191,0.761-0.191c0.197-0.189,0.38-0.563,0.38-0.944
	c0-0.38-0.183-0.759-0.38-0.95c-0.191,0-0.381-0.191-0.761-0.191v-0.57c0.57,0,0.957,0.191,1.141,0.38
	c0.381,0.381,0.57,0.761,0.57,1.331c0,0.564-0.189,0.944-0.57,1.135c-0.183,0.381-0.57,0.57-1.141,0.57V113.953z"/>
<g>
	<g>
		<path fill="#ED1B24" d="M503.947,61.742c6.97,5.83,12.876,12.819,19.561,18.953c-6.039,6.628-12.838,12.553-18.782,19.257
			c5.887,6.723,12.705,12.572,18.725,19.162c-6.4,6.438-12.686,13.009-19.333,19.162c-12.003-13.218-25.505-25.049-37.47-38.286
			C478.404,86.678,492.021,74.96,503.947,61.742z"/>
		<path fill="#ED1B24" d="M542.177,61.723c13.351,12.268,25.752,25.562,38.704,38.248c-12.952,12.629-25.277,25.961-38.647,38.134
			c-5.754-6.742-12.458-12.534-18.459-19.048c6.343-6.438,12.724-12.819,19.2-19.143c-6.343-6.571-13.579-12.401-19.067-19.732
			C530.212,74.257,536.555,68.313,542.177,61.723z"/>
		<path fill="#ED1B24" d="M163.415,84.93c5.887-5.811,15.782-6.248,22.884-2.45c-0.133,3.551-0.152,7.122-0.095,10.692
			c-3.38-3.115-8.432-5.925-12.914-3.361c-7.824,3.57-8.147,16.105-0.475,20.017c4.539,2.849,9.875,0.19,13.389-3.039
			c-0.057,3.589-0.038,7.16,0.038,10.749c-7.16,3.38-16.94,3.437-22.79-2.507C154.926,107.587,154.888,92.394,163.415,84.93z"/>
		<path fill="#ED1B24" d="M19.119,80.942c9.249,0.171,18.497-0.38,27.727,0.342c-0.076,2.811-0.133,5.621-0.19,8.451
			c-2.849-0.019-5.716-0.019-8.565-0.038c0.133,9.781,0.057,19.58,0.057,29.361c-3.361,0-6.742,0-10.103,0.019
			c0.038-9.724-0.171-19.428,0.152-29.133c-2.925-0.19-5.849-0.228-8.774-0.152C19.309,86.849,19.214,83.886,19.119,80.942z"/>
		<path fill="#ED1B24" d="M51.917,81.132c7.767-0.285,15.554-0.38,23.321,0.057c0.019,2.469,0.038,4.938,0.076,7.407
			c-4.482,0.532-8.983,0.418-13.465,0.551c-0.019,2.241-0.038,4.463-0.057,6.704c4.197,0.095,8.413,0.171,12.629,0.133
			c0,2.64,0,5.299,0,7.957c-4.159,0-8.318-0.019-12.477-0.076c-0.019,1.69-0.038,5.09-0.057,6.78c4.406,0.019,8.812,0,13.199-0.057
			c0.095,2.735,0.171,5.469,0.285,8.185c-7.824,0.551-15.687,0.342-23.511,0.133C52.202,106.315,52.126,93.723,51.917,81.132z"/>
		<path fill="#ED1B24" d="M87.146,84.703c6.039-5.583,15.82-6.001,22.846-2.165c-0.133,3.532-0.057,7.084,0.19,10.616
			c-3.551-2.659-7.9-5.697-12.534-3.741c-8.926,3.153-8.964,17.89,0.019,21.004c4.615,2.051,9.021-1.026,12.325-3.988
			c-0.114,3.627-0.114,7.255,0.038,10.882c-6.685,3.475-15.744,3.665-21.783-1.253C78.562,108.878,78.163,92.603,87.146,84.703z"/>
		<path fill="#ED1B24" d="M115.899,80.961c3.361,0,6.742-0.019,10.103-0.019c-0.019,4.957-0.019,9.913-0.019,14.87
			c4.71,0,9.439,0.038,14.148,0.076c0.057-4.976,0.133-9.951,0.095-14.927c3.361,0,6.723,0,10.084-0.019
			c0.019,12.705,0.019,25.41,0,38.115c-3.361,0-6.723,0-10.084,0.019c0.019-5.299,0.095-10.597-0.209-15.877
			c-4.729,0.114-9.439,0.19-14.167,0.266c0.152,5.204,0.152,10.407,0.114,15.592c-3.361,0-6.704,0-10.065,0
			C115.899,106.353,115.899,93.647,115.899,80.961z"/>
		<g>
			<path fill="#ED1B24" d="M202.138,81.835c10.673-4.9,24.974,0.57,28.24,12.192c4.216,11.661-5.28,25.467-17.643,25.771
				c-11.889,1.595-23.549-9.42-21.973-21.441C191.009,91.179,196.004,85.082,202.138,81.835z M207.569,89.203
				c-8.85,3.38-8.907,18.308,0.019,21.65c6.096,2.431,13.028-2.621,13.389-8.964C222.687,94.426,215.223,86.032,207.569,89.203z"/>
		</g>
		<path fill="#ED1B24" d="M241.336,80.942c3.399,0.285,7.217-0.798,10.35,0.741c2.925,7.274,3.229,15.801,7.426,22.41
			c1.728-7.843,4.14-15.516,6.571-23.169c3.323,0.038,6.647,0.038,9.97,0.038c2.203,12.667,4.026,25.391,5.944,38.096
			c-3.267,0-6.533,0-9.799,0c-0.418-8.356-2.165-16.56-2.868-24.879c-2.013,8.394-4.767,16.579-6.989,24.917
			c-2.336-0.019-4.672-0.057-7.008-0.095c-2.127-8.356-4.368-16.712-7.274-24.841c-0.133,8.375-1.804,16.598-2.697,24.898
			c-3.21,0-6.419,0-9.61,0C237.405,106.372,239.323,93.647,241.336,80.942z"/>
	</g>
	<g>
		<g>
			<path fill="#061822" d="M287.295,81.113c9.363,0.665,21.84-3.361,28.164,5.887c1.12,5.28-1.481,9.363-6.02,11.775
				c8.926,0.855,10.483,13.788,3.399,18.118c-8.052,3.475-17.054,1.861-25.543,2.108C287.542,106.372,287.542,93.742,287.295,81.113
				z M296.639,88.292c0.076,2.697,0.133,5.394,0.171,8.09c2.887-0.456,9.629,0.779,9.021-4.102
				C306.305,87.228,299.62,88.881,296.639,88.292z M296.753,102.63c0,2.944-0.019,5.868-0.057,8.831
				c3.76-0.323,10.065,1.215,11.015-3.931C307.786,101.662,300.665,102.82,296.753,102.63z"/>
		</g>
		<g>
			<path fill="#061822" d="M332.475,80.961c4.311,0.019,8.641,0.019,12.971,0.038c3.95,12.8,8.641,25.372,12.99,38.059
				c-3.513,0-7.008,0-10.502,0c-0.437-2.317-0.855-4.615-1.253-6.913c-5.128-0.209-10.255-0.171-15.364-0.095
				c-0.988,2.222-0.551,5.526-2.811,6.913c-3.21,0.247-6.419,0.114-9.629,0.133C323.986,106.599,327.613,93.552,332.475,80.961z
				 M333.254,105.46c3.532-0.608,7.141-0.475,10.711-0.323c-1.101-6.115-4.026-11.756-4.558-18.004
				C336.634,92.983,335.495,99.421,333.254,105.46z"/>
		</g>
		<path fill="#061822" d="M362.329,80.999c3.248,0,6.495-0.019,9.762-0.038c6.324,8.698,13.313,16.997,18.403,26.531
			c-1.709-8.736-0.798-17.681-1.139-26.512c3.323,0,6.647,0.019,9.97,0.019c0.019,12.686,0,25.372,0,38.059
			c-3.21,0-6.419,0.019-9.629,0.038c-6.362-8.717-13.066-17.187-18.497-26.512c1.937,8.698,0.798,17.643,1.083,26.474
			c-3.323,0-6.628,0-9.951,0.019C362.405,106.372,362.405,93.685,362.329,80.999z"/>
		<path fill="#061822" d="M407.908,80.999c3.342,0,6.685-0.019,10.046-0.019c0.019,5.64-0.095,11.262-0.019,16.902
			c4.577-5.09,8.147-11.053,11.851-16.807c4.083-0.076,8.166-0.114,12.268-0.152c-4.691,6.02-8.85,12.458-14.092,18.023
			c4.691,7.008,10.312,13.332,15.326,20.112c-4.159,0-8.299,0-12.439,0.095c-4.501-5.583-8.337-11.699-12.914-17.206
			c-0.057,5.697,0.019,11.414,0.019,17.111c-3.342,0-6.704,0-10.046,0.019C407.984,106.372,407.984,93.685,407.908,80.999z"/>
	</g>
</g>
</svg>
