<?xml version="1.0" encoding="utf-8"?>
<!-- Generator: Adobe Illustrator 24.2.0, SVG Export Plug-In . SVG Version: 6.00 Build 0)  -->
<svg version="1.1" id="Layer_1" xmlns="http://www.w3.org/2000/svg" xmlns:xlink="http://www.w3.org/1999/xlink" x="0px" y="0px"
	 viewBox="0 0 1215 1215" style="enable-background:new 0 0 1215 1215;" xml:space="preserve">
<style type="text/css">
	.st0{fill:#04418C;}
	.st1{fill:#FFFFFF;}
	.st2{fill:#EB1620;}
	.st3{fill:#EC1720;}
	.st4{fill:#E91620;}
</style>
<rect y="-6.5" class="st0" width="1215" height="1228.1"/>
<g>
	<g>
		<path class="st1" d="M915.1,634.3c-7.2,0.1-14.4,0.1-21.6,0.1c-3.8-7.8-7.6-15.5-11.2-23.4c-16.8,0-33.7,0-50.5,0
			c-3.7,7.8-7.6,15.5-11.2,23.3c-7.3,0-14.5,0.1-21.8,0c16.1-33.5,32.4-66.9,48.5-100.4c2.2,0,19.4,0.1,19.4,0.1
			S904.5,612.2,915.1,634.3z M840,594.2c11.2,0,22.4,0.2,33.5,0c-0.4-1.2-0.7-2.5-1.2-3.6c-5.1-10.5-10.2-21-15.2-31.5
			C851.1,570.5,845.8,582.5,840,594.2z"/>
	</g>
	<path class="st1" d="M358.3,536.3c0.6-0.9,0.9-2.6,2.3-2.3c6.8,0,13.7,0,20.5,0.1c-16,33.4-32.4,66.6-48.3,100.1
		c-6.5,0.2-13.1,0.1-19.6,0.1C297,601,280.9,567.5,264.7,534c7.3,0,14.5-0.1,21.8,0c12.1,25.3,24.3,50.5,36.6,75.7
		C334.7,585.2,346.8,560.9,358.3,536.3z"/>
	<path class="st1" d="M387.3,534.1c6.5-0.2,12.9-0.2,19.4,0c0.1,33.4,0,66.8,0,100.2c-6.4,0-12.9,0.1-19.3,0.1
		C386.8,601,387.4,567.6,387.3,534.1z"/>
	<path class="st1" d="M1085.2,535c0.6-0.7,1.3-1.1,2.3-1c4.1-0.1,8.2,0.1,12.4,0c3.3,0,6.6,0,9.9,0c-4.5,5.7-9.9,10.6-14.8,15.9
		c-7.7,7.9-15.3,15.9-23.1,23.8c13.4,20.1,26.4,40.5,40,60.5c-7.9,0-15.9,0.6-23.7-0.1c-10-15.2-20.2-30.4-30.1-45.8
		c-4.4,3.9-8.1,8.4-12.3,12.5c-0.1,11.1-0.1,22.3-0.1,33.4c-6.6,0-13.1,0.1-19.7,0c-0.1-33.4-0.1-66.8,0-100.3
		c6.6-0.1,13.1-0.1,19.7,0c0.1,13.9,0,27.9,0.1,41.8C1058.9,562.3,1072.1,548.7,1085.2,535z"/>
	<path class="st1" d="M419.6,534.1c24.2-0.3,48.3,0,72.5-0.1c0.2,2.4,0.2,4.8,0.2,7.2c0,3.2,0,6.3,0,9.5
		c-17.8,0.2-35.6,0.1-53.4,0.1c-0.1,7.8,0,15.7,0,23.5c16.6,0,33.3-0.1,49.9,0.1c0,5.5,0.1,10.9,0.1,16.4c-16.7,0.1-33.3,0-50,0
		c-0.1,9-0.1,18,0.1,27c18.4-0.1,36.8-0.1,55.2,0.1c0,5.5,0,10.9,0,16.4c-24.9,0.2-49.7,0-74.6,0.1
		C419.3,601,419.6,567.5,419.6,534.1z"/>
	<path class="st1" d="M501.7,534.1c25.9-0.1,51.9,0,77.8-0.1c-0.2,5.6,0,11.2-0.1,16.7c-9.6,0.1-19.2,0.1-28.8,0
		c0,27.8,0,55.7,0,83.6c-6.6,0.1-13.2,0.1-19.8,0.1c-0.5-27.9-0.1-55.7-0.1-83.6c-9.6,0.1-19.3,0-28.9,0.1
		C501.8,545.3,501.8,539.7,501.7,534.1z"/>
	<g>
		<path class="st1" d="M632.6,534c6.4-0.1,12.8,0.1,19.2-0.1c16.5,33.3,32.4,67,48.8,100.4c-7.3,0-14.6,0.1-21.9,0
			c-3.7-7.8-7.5-15.6-11.2-23.4c-16.9,0.1-33.8-0.1-50.6,0.1c-3.3,7.8-7.5,15.3-10.8,23.1c-7.3,0.3-14.7,0.2-22,0.1
			C600.2,600.9,616.5,567.5,632.6,534z M642.1,558.8c-5.5,11.9-11.4,23.6-16.9,35.5c11.4,0,22.8,0.2,34.1,0
			C653.4,582.5,647.9,570.5,642.1,558.8z"/>
	</g>
	<g>
		<path class="st1" d="M719.7,534.1c16-0.1,31.9-0.3,47.9,0.1c6.7,0.1,13.8,1.1,19.2,5.4c6.5,5.1,10.6,13.5,9.5,21.9
			c-0.4,8.3-5.8,15.6-13,19.5c6.8,2.3,13.1,7,15.8,13.8c4.1,9.9,1.8,22-5,30.2c-5,6-12.9,8.9-20.5,9c-17.8,0.5-35.7,0.2-53.5,0.3
			c-0.1-0.3-0.2-0.8-0.2-1.1C719.7,600.2,719.6,567.2,719.7,534.1z M739.5,550.8c-0.2,7.7,0,15.4-0.1,23.1c7.4,0.2,14.7,0.1,22.1,0
			c4-0.1,8.3-0.2,11.6-2.6c5.6-4.1,5.7-13.5,0.5-17.9c-2.7-2-6.2-2.2-9.4-2.4C756,550.7,747.7,550.7,739.5,550.8z M739.5,590.7
			c-0.2,9-0.3,18,0.1,27c8.6-0.1,17.3,0.1,25.9-0.2c4.2-0.3,9.1-0.5,12.1-3.9c3.9-3.9,4-10.3,2.1-15.1c-2.1-5.3-8-7.2-13.2-7.5
			C757.5,590.5,748.5,590.8,739.5,590.7z"/>
	</g>
	<path class="st1" d="M921.4,534c6.6,0,13.2-0.1,19.8,0c17,22.3,34.3,44.5,51.6,66.6c0-22.2-0.2-44.4-0.1-66.5
		c6.5-0.2,13-0.2,19.6,0c0,33.4-0.1,66.8,0,100.2c-6.5,0-13.1,0.1-19.7,0.1c-17.2-22.1-34.4-44.3-51.8-66.2
		c-0.1,22.1-0.1,44.1,0,66.2c-6.5,0-13,0.1-19.4,0C921.3,600.9,921.2,567.5,921.4,534z"/>
	<g>
		<path class="st1" d="M313,678.1c8.1-3.2,18.5-3.8,25.3,2.4c6.4,6.8,6.8,17.3,4.5,25.9c-1.5,6.6-7.5,11.8-14.3,12.2
			c-5.3,0.3-11,0.3-15.8-2.2c-0.2-5.9-0.1-11.8-0.3-17.8c-0.8,0-2.3,0-3,0.1c0.1-1.9,0.1-3.7,0.2-5.6c0.7,0,2.2,0,2.9,0
			C312.9,688.2,312,682.8,313,678.1z M322.3,682.3c-0.1,3.6-0.1,7.1-0.1,10.7c1.6,0.1,3.3,0.1,4.9,0.2c0,1.8,0,3.7,0,5.5
			c-1.6,0-3.2,0-4.8,0c-0.1,4.4,0,8.8,0,13.1c2.3,0.4,4.9,0.7,7.1-0.5c3.4-1.5,4.1-5.6,4.6-8.9c0.4-5.9,1-12.6-2.6-17.7
			C329.3,681.7,325.3,682.3,322.3,682.3z"/>
	</g>
	<g>
		<path class="st1" d="M361.9,676.2c5.9-1.5,12.8,0.5,16.4,5.6c3.1,4.6,3.9,10.3,4,15.7c-0.2,5.4-1,11.2-4.4,15.7
			c-5.5,7.7-18.7,7.5-24.2-0.1c-4.6-5.8-4.4-13.7-4-20.7C350.2,685.3,354.5,677.7,361.9,676.2z M363.7,682.8
			c-3.7,2.5-3.9,7.6-4,11.6c0,4.9-0.5,10.3,2,14.8c1.4,2.6,5.5,3.1,7.6,1.1c2.4-3,2.8-7.1,3-10.8c0.2-4.7,0-9.6-1.8-14
			C369.5,682.9,366.2,681.5,363.7,682.8z"/>
	</g>
	<path class="st1" d="M433.8,680.8c6.5-6.2,16.7-6,24.5-2.6c-1,2-2,4-2.8,6.1c-3.6-1.6-8-2.2-11.8-0.6c-4.4,2.1-5.9,7.3-5.9,11.8
		c-0.1,4.7,0,9.9,2.9,13.8c1.9,2.7,5.7,3.3,8.7,2.2c0-4,0-8,0-12c-1.6,0-3.3,0.1-4.9,0.1c0-2,0-4,0-6c4.7,0,9.4,0,14.1,0
		c-0.1,7.7,0.2,15.4-0.2,23c-4.7,2-9.9,2.3-14.9,1.9c-6.8-0.5-12.7-5.6-14.5-12.1C426.3,697.9,427.2,687.4,433.8,680.8z"/>
	<path class="st1" d="M657.7,680.8c5-5.8,13.9-6.3,20.4-2.7c-0.6,2-1.2,4-1.7,6c-3.1-1.2-7.2-2.1-9.9,0.6c-3.8,3.9-4,9.8-3.9,14.9
		c0.5,4.2,1.5,9.2,5.6,11.3c2.6,0.8,5.4,0.4,7.8-0.7c0.6,2.2,1.3,4.3,1.9,6.5c-3.8,2.2-8.3,2.5-12.6,1.9c-5.9-1.2-10.3-6.3-11.8-12
		C651.1,698,652,687.9,657.7,680.8z"/>
	<path class="st1" d="M766.3,680.2c6.6-5.6,16.3-5.4,23.9-2.1c-1,2-2,4.1-2.8,6.3c-4.5-2.2-10.9-2.6-14.6,1.4
		c-2.4,2.6-3.1,6.3-3.1,9.7c-0.1,4.5-0.1,9.4,2.5,13.2c1.8,2.9,5.9,4.2,9,2.6c-0.1-3.9,0-7.8,0-11.8c-1.7,0-3.3,0-5,0c0-2-0.1-4,0-6
		c4.7,0,9.5,0,14.2,0c-0.1,7.6,0.2,15.3,0,22.9c-4.5,2.4-9.8,2.4-14.8,2.1c-6.7-0.5-12.7-5.3-14.6-11.8
		C758.2,698,758.9,686.8,766.3,680.2z"/>
	<g>
		<path class="st1" d="M1017,676.1c6.3-1.4,13.7,1,16.9,6.9c4.5,8.6,4.4,19.4,0.3,28.1c-4.5,9.3-19.3,10.4-25.4,2.2
			c-4.5-5.9-4.9-13.8-4.3-20.9C1005.1,685.3,1009.3,677.5,1017,676.1z M1018.7,682.7c-4,2.4-4,7.6-4.3,11.7c0,5-0.5,10.6,2.3,15
			c1.6,2.8,6.3,2.8,8,0.2c2.4-3.9,2.4-8.6,2.5-13c-0.1-4.1-0.2-8.6-2.5-12.1C1023.4,682.4,1020.7,681.8,1018.7,682.7z"/>
	</g>
	<path class="st1" d="M1090.9,678.8c6.6-4.2,15.1-3.7,22.1-0.8c-0.9,2-1.7,4-2.8,5.9c-3.8-0.9-7.9-2.1-11.6-0.4
		c-2.8,1.1-4.5,3.8-5.3,6.7c-1.6,5.7-1.3,12,1.2,17.4c1.6,3.6,6,5.4,9.7,3.8c-0.1-4,0-8,0-12c-1.7,0-3.3,0.1-5,0.1c0-2,0-4,0-6
		c4.7,0,9.4,0,14.1-0.1c0.1,7.6,0,15.3,0,22.9c-4.6,2.6-10.1,2.3-15.3,2.3c-3.4-0.8-6.9-1.9-9.5-4.4c-4.6-4.3-6-10.9-6.2-16.9
		C1082.4,690.5,1084.8,682.8,1090.9,678.8z"/>
	<path class="st1" d="M388.9,676.6c2.9,0,5.9,0,8.8-0.1c5,8.5,10.5,16.7,15,25.4c-0.3-8.5-0.1-16.9-0.2-25.4c2.8,0,5.7,0,8.5,0.1
		c0,13.9-0.1,27.7,0,41.6c-2.6-0.2-5.4,0.5-7.8-0.3c-5.5-8.9-10.8-17.9-16.1-27c0.1,9.1,0,18.3,0.1,27.4c-2.8,0-5.5,0-8.3,0
		C388.9,704.3,389.1,690.5,388.9,676.6z"/>
	<path class="st1" d="M482.7,676.6c3.3,0,6.6,0,9.9,0c0.1,5.7-0.1,11.4,0.1,17.1c3.5,0,7,0,10.5,0c0.1-5.7,0-11.4,0.1-17.1
		c3.3,0,6.6,0,9.9,0c0,13.9,0,27.7,0,41.6c-3.2-0.3-7,0.7-9.9-0.4c-0.2-5.8,0-11.7-0.1-17.6c-3.5,0-7,0-10.5,0c0,6,0,12,0,18
		c-3.4,0-6.7,0.1-10-0.1C482.7,704.2,482.6,690.4,482.7,676.6z"/>
	<g>
		<path class="st1" d="M531,676.6c3.2-0.2,6.4-0.2,9.7-0.2c4.8,13.8,9.2,27.8,13.7,41.7c-3.3,0.1-6.7,0.1-10,0.2
			c-1.1-3-1.8-6-2.7-9.1c-4.2,0.1-8.3-0.1-12.5,0.1c-1.7,2.5-1.8,6.1-3,8.9c-2.9,0-5.9-0.1-8.8-0.1C522,704.3,526.7,690.5,531,676.6
			z M530.5,703.6c3.3,0,6.6,0,9.9-0.1c-1.8-6-3.3-12-4.9-18C534.1,691.6,532.2,697.6,530.5,703.6z"/>
	</g>
	<path class="st1" d="M558.7,676.5c2.9,0,5.8,0,8.8,0c5,8.4,10.4,16.6,14.9,25.2c-0.2-8.4-0.2-16.8-0.1-25.1c2.8-0.1,5.6,0,8.4,0
		c0,13.8-0.2,27.6,0.1,41.5c-2.6,0.2-5.2,0.2-7.8,0.1c-5.4-9.3-11.3-18.3-16.2-27.9c0.3,9.3,0.1,18.7,0.1,28
		c-2.7-0.1-5.5-0.1-8.2-0.1C558.7,704.3,558.7,690.4,558.7,676.5z"/>
	<path class="st1" d="M598.8,676.6c3.3,0,6.6,0,9.9,0c0.1,5.7-0.1,11.4,0.1,17c3.5,0,7,0,10.5,0c0.1-5.7,0-11.4,0.1-17.1
		c3.3,0,6.6,0,9.9,0c0,13.9,0,27.7,0,41.6c-3.3,0-6.6,0-9.8,0c-0.1-6,0-12-0.1-18.1c-3.5,0-7,0-10.6,0c-0.1,6,0.2,12.1-0.2,18.1
		c-3.3,0-6.5,0-9.7,0C598.7,704.3,598.7,690.5,598.8,676.6z"/>
	<path class="st1" d="M683.7,676.6c3.3,0,6.6,0,10,0.1c0,9.3,0,18.6,0,27.8c-0.1,1.9,0.2,4,1.4,5.6c2.6,2.4,8,1.5,8.3-2.5
		c0.7-10.4,0.1-20.8,0.3-31.2c3.1,0.1,6.1,0.2,9.2,0.2c0.1,9.6,0.1,19.3,0,28.9c0.3,4.8-2.5,9.5-6.8,11.6c-6.4,3.1-15.3,2.3-20-3.5
		c-2.3-2.8-2.5-6.7-2.5-10.2C683.7,694.5,683.6,685.5,683.7,676.6z"/>
	<path class="st1" d="M720.8,676.6c3,0,5.9,0,8.9-0.1c4.8,8.4,10.1,16.5,14.9,25c-0.3-8.3-0.1-16.6-0.2-24.9c2.8-0.1,5.6,0,8.4,0
		c0.2,13.8-0.1,27.7,0.1,41.5c-2.6,0.2-5.2,0.2-7.8,0.1c-5.2-9.3-11.1-18.1-16-27.5c0.1,9.2,0,18.4,0,27.6c-2.8,0-5.5,0-8.3,0
		C720.8,704.3,720.9,690.5,720.8,676.6z"/>
	<path class="st1" d="M814.6,676.5c3.3,0,6.5,0,9.8,0c0,6.3-0.1,12.6,0.1,18.8c3.8-6.2,7-12.8,10.9-18.9c3.3-0.3,6.7,0,10,0
		c-4,6.3-8.1,12.6-11.8,19.1c4.1,7.6,8.5,14.9,12.5,22.5c-3.6,0-7.2,0-10.8,0.1c-3.9-6.8-7-14-10.8-20.9c-0.3,6.9-0.1,13.8-0.1,20.8
		c-3.3,0-6.5,0-9.8,0C814.5,704.3,814.6,690.4,814.6,676.5z"/>
	<path class="st1" d="M850.7,676.5c3.3,0,6.6,0,10,0c0,5.7,0,11.3,0,17c3.5,0.1,7,0.1,10.5,0c0-5.7,0-11.3,0-17c3.3,0,6.6,0,9.9,0
		c0,13.9-0.1,27.7,0,41.6c-3.3,0-6.6,0.1-9.8,0.1c-0.3-6,0-12.1-0.1-18.1c-3.5,0-7,0-10.5-0.1c-0.2,6,0,12,0,18
		c-3.3,0.1-6.7,0.1-10,0C850.6,704.3,850.6,690.4,850.7,676.5z"/>
	<g>
		<path class="st1" d="M885.5,718.2c4.6-13.9,9.1-27.9,13.7-41.7c3.2,0,6.3,0,9.5-0.1c4.7,13.9,9,27.9,13.7,41.8
			c-3.4,0.1-6.8,0.1-10.2,0.1c-0.8-3-1.7-6-2.5-9c-4.3,0-8.6,0-12.9,0.1c-0.7,3-1.5,6-2.6,8.9C891.3,718.2,888.4,718.2,885.5,718.2z
			 M898.5,703.6c3.3,0,6.6,0,9.9-0.1c-1.6-6-3.5-11.9-4.8-17.9C901.9,691.6,900.3,697.6,898.5,703.6z"/>
	</g>
	<path class="st1" d="M924.6,676.6c8.2,0,16.5,0,24.7,0c0,2.1,0,4.3,0,6.4c-2.4,0-4.8-0.1-7.2-0.1c0,11.7-0.2,23.4,0.1,35.1
		c-3.3,0.2-6.7,0.2-10,0.2c-0.2-11.8-0.1-23.5,0-35.3c-2.5,0-4.9,0-7.4,0C924.6,680.8,924.6,678.7,924.6,676.6z"/>
	<path class="st1" d="M968.1,676.6c3.5,0,7,0,10.5,0c2.3,9.6,4.7,19.2,6.9,28.9c2.1-9.7,4.7-19.2,7-28.9c3.2,0,6.4,0,9.6,0.1
		c-4.3,13.8-8.4,27.8-12.7,41.6c-2.8-0.1-5.6-0.1-8.4,0C976.3,704.5,972.4,690.4,968.1,676.6z"/>
	<path class="st1" d="M1043.7,676.6c3,0.3,6.3-0.8,9.1,0.4c4.7,8.2,10.3,16,14.4,24.6c0.5-8.3,0-16.7,0.3-25c2.8,0,5.6,0,8.4,0
		c0,13.9,0.1,27.8-0.1,41.7c-2.6-0.1-5.2-0.1-7.7-0.1c-5.3-9.4-11.5-18.4-16.2-28.1c0.6,9.3,0,18.7,0.3,28c-2.8,0.2-5.6,0.2-8.4,0.1
		C1043.6,704.3,1043.8,690.5,1043.7,676.6z"/>
	<path class="st1" d="M1018.8,722.8c3.3-1.7,7.4,2.2,6,5.6c-0.9,3.2-5.6,4.2-7.7,1.5C1015.1,727.7,1016.1,723.9,1018.8,722.8z"/>
</g>
<g>
	<path class="st2" d="M142.2,561.5c14.6-26,28.9-52,43.4-78c7.8,14.4,16.1,28.5,23.7,43c-1.6,4.7-4.5,8.8-6.8,13.3
		c-6.1,10-11.4,20.5-17.2,30.8c-6.8,11.6-13.1,23.4-19.8,35.1c-7.5-13.3-14.5-26.8-22.4-39.8C142.7,564.4,141.1,562.9,142.2,561.5z"
		/>
</g>
<g>
	<path class="st3" d="M214.9,536.4c9.1,15.3,17.1,31.3,26.2,46.5c9.3,16.7,18.5,33.5,27.9,50.1c0.2,0.3,0.6,1,0.8,1.3
		c-25.8,0.5-51.5,0.2-77.3,0.3c-10.9-0.4-21.8,0.4-32.6-0.4c-0.1-0.3-0.2-0.8-0.3-1l1.3-0.1c3.3-4.6,5.6-9.8,8.6-14.6
		C184.6,591.1,200.2,564,214.9,536.4z"/>
</g>
<g>
	<path class="st4" d="M101.6,634.1c9.8-17.4,19.5-35,29.3-52.4c8.1,13.8,15.7,27.9,23.5,41.9c1.8,3.1,3.8,6.2,5.1,9.5
		c0.1,0.3,0.2,0.8,0.3,1c-3.5,0.1-6.9,0.4-10.4,0.3C133.6,634.1,117.6,634.8,101.6,634.1z"/>
</g>
<g>
	<path class="st1" d="M368.3,660.6l8.8-0.2l4.1,8.3c0,0-3.3,0-4.9,0.1C373.6,666.3,368.3,660.6,368.3,660.6z"/>
	<polygon class="st1" points="525.6,664.5 534.4,664.4 538.8,673.2 533.8,673.1 	"/>
	<polygon class="st1" points="689.8,664.4 699.2,664.3 703.2,673.2 698,673 	"/>
</g>
<g>
	<path class="st1" d="M900.6,673.2l5.4-8.8l7.8,0c0,0-5.3,6-8.1,8.9C904,673.3,900.6,673.2,900.6,673.2z"/>
</g>
<g>
	<path class="st1" d="M356.7,671.5l7.8-7.3l3.6,0.1l6.8,7.3c0,0-1.7,1.4-2.6,2.2c-2.1-1.3-6.2-4.1-6.2-4.1l-6.8,4.2L356.7,671.5z"/>
</g>
</svg>
